<svg id="Capa_1" enable-background="new 0 0 511.983 511.983" height="512" viewBox="0 0 511.983 511.983" width="512" xmlns="http://www.w3.org/2000/svg"><g><g><path d="m197.448 369.628c.954.315 23.733 7.71 56.412 7.71 35.306 0 59.622-6.632 60.639-6.914 4.328-1.2 6.894-6.474 4.616-10.751-21.944-41.219-40.491-84.261-56.082-128.266-2.31-6.523-11.828-6.523-14.139 0-7.859 22.184-16.491 44.098-25.905 65.669-3.879 8.888 9.868 14.888 13.748 6 6.81-15.605 13.219-31.388 19.227-47.318 13.151 34.895 28.188 69.116 45.33 102.238-9.774 1.865-26.668 4.343-47.434 4.343-18.719 0-34.065-2.661-43.05-4.69 3.049-5.904 6.092-11.967 9.092-18.113 4.253-8.715-9.228-15.293-13.48-6.578-4.363 8.94-8.819 17.698-13.246 26.031-1.873 4.87-.449 8.416 4.272 10.639z"/><path d="m425.567 224.571c-8.098-21.098-16.987-41.777-26.42-61.464-4.19-8.746-17.718-2.263-13.527 6.481 9.26 19.327 17.989 39.634 25.944 60.357 40.368 105.168 55.293 207.976 36.294 250.008-3.75 8.297-8.663 13.622-14.601 15.825-21.804 8.088-60.301-24.722-98.074-83.596-1.821-2.838-5.311-4.111-8.533-3.113-18.318 5.677-44.722 8.934-72.442 8.934-26.515 0-51.237-2.875-69.615-8.095-3.174-.903-6.566.377-8.354 3.152-37.565 58.29-75.839 90.761-97.514 82.719-5.938-2.203-10.851-7.527-14.601-15.825-18.999-42.032-4.074-144.839 36.294-250.008 23.152-60.316 52.288-115.587 82.041-155.633 28.014-37.703 54.774-59.313 73.484-59.313h.143c28.018 0 71.931 47.15 111.901 120.157 4.657 8.507 17.814 1.302 13.157-7.203-43.873-80.138-90.615-127.954-125.022-127.954-.075 0-.147 0-.222 0-30.503 0-63.315 35.536-85.479 65.367-30.544 41.11-60.377 97.649-84.004 159.204-42.352 110.335-56.802 215.448-35.96 261.561 6.503 14.387 18.636 25.85 35.212 25.848 27.829-.003 63.42-30.425 100.197-86.219 18.947 4.685 42.946 7.242 68.342 7.242 26.551 0 52.157-2.902 71.394-8.029 36.964 56.307 72.73 87.01 100.697 87.009 16.584-.002 28.72-11.455 35.227-25.851 20.843-46.113 6.392-151.226-35.959-261.561z"/><path d="m241.232 50.635c-2.963-2.894-7.712-2.839-10.606.125-1.995 2.042-49.245 50.82-82.398 120-4.083 8.519 9.358 15.183 13.527 6.482 32.042-66.86 79.131-115.519 79.603-116.002 2.893-2.964 2.837-7.711-.126-10.605z"/></g></g></svg>