<svg xmlns="http://www.w3.org/2000/svg" width="905.006" height="1154.242" stroke="none" fill="#000" stroke-linecap="round" stroke-linejoin="round" xmlns:v="https://vecta.io/nano"><path d="M338.3 330.1c-.1-9.8 2.1-19.7 6.5-28.4-9.2-9.6-16.1-21.5-19.8-34.3-10.3 12.5-14.1 30.2-9.6 45.7-9.3-11.4-8.2-28.8-1-41.7s19.3-22.3 31.5-30.8l-15.1 3c20.8-13.4 39.8-29.7 56.2-48.3 4.5 7.3 15.8 9.3 22.4 3.8l-18.5 11.6c36.3-12 70.9-29.1 102.5-50.5l14.4 30.5c-6.9-3.8-12.5-10.1-15.3-17.5-2.3 13.5 10.5 24.6 22.7 30.9 12.1 6.2 26.4 12 31.5 24.7 2.1 5.2 2.4 11.1 5.4 15.9 3 4.7 10.6 7.4 14 2.9l6.9 11c-3.5-17.2-15-32.5-30.5-40.7 12.3-.5 24.7 4.9 32.7 14.3-2.7-15.4-.9-31.5 5.3-45.9-.4 25.9 8.3 51.8 24.2 72.3 3.5 4.5 13.1 6.8 12.7 1.1-2.7 5.5-2 12.6 1.9 17.5.4-7.8 4.4-15.3 10.7-20.1l15.8 28.5c-7.6-3.8-13.4-11.2-15.4-19.5l-6.5 18.5c15 7.1 27.4 19.4 34.6 34.4l-65.9-55.2c-6.2 14.3-5.7 31.4 1.4 45.2l-13.7 36.1c2.2-14.6 2-29.5-.6-44.1-10.3 46-24.4 91.2-42.1 134.9 18.1-15.3 30.5-37.2 34.2-60.5-2.6-.1-2.1 4.6.5 5 2.5.5 4.7-1.6 6.4-3.5l14.8-16.5L530.2 474l99.1-99.9c-1.1 5.2.4 10.8 4 14.7 1.2-26.7 30.6-45.9 30.8-72.6.2-15.5-9.7-28.9-16.8-42.7-29.1-55.9-16.3-128.4-52.2-180.2 40.4 45.9 29.4 117.2 53.5 173.5 6.9 16 16.8 31.4 17.9 48.8 1.4 21.4-10.8 41.1-22.7 59l39 13.1c-14.2.3-28.6-2.1-41.9-7.1-.5 20.9 1.4 41.9 5.5 62.5l-20.6-51.5c-1.1 35.3 30.3 64.9 31.2 100.2.4 16.9-6.2 33.2-10.2 49.7s-4.8 35.5 5.8 48.8c-1.2-11.9 2.9-24.2 11-32.9-10.1 36.2-13.2 74.3-9.2 111.7l-9.6-21.8 12.7 63.6c-20-36.4-28.6-78.9-24.4-120.2l9.1 10.7c-13.5-33.5-32.2-65-55.2-92.9-1.9 3.9 5.3 6.8 8.3 3.6 2.9-3.2 2.2-8.1 1.3-12.4l26.7 53.4c.6-10 2.4-19.9 5.5-29.5l7.6 30.5c-5.1-36.8-8.3-73.8-9.5-110.9l20.4 78.2c3.3-40.1-8.3-81.2-32-113.6-37.4 31.1-71.8 65.9-102.4 103.8l.1-14.9c-9.4 20.9-15.4 43.4-17.5 66.3 7.1-6.4 14.6 7.7 14 17.2l-16.8 273.4-3.9-34a339.9 339.9 0 0 0-1.5 60.5l11.3-20.7-2.5 39.3c-4.1-2.9-6.4-8-6-12.9-6.7 7.6 1.4 22 11.4 20.2-13.6 71.7-4.2 147.6 26.5 213.9-23.6-31.5-32.3-71.3-40.5-109.8-.8 18.9 1 37.9 5.4 56.3 3.5 1.1 2.2-6.5-1.4-5.6-3.5.9-4.5 5.4-4.7 9.1-.7 17.3 2.2 34.8 8.6 51 2.5 6.4 5.6 13.1 4.7 19.9-.9 6.9-7.9 13.4-14.3 10.8-1.7-33.8-8.8-67.4-21.1-99l1.2 17.7c-11.7-3.8-13.9-19.2-14-31.5l-.5-89.7-37 39c28.4-25.7 41.5-67 33.3-104.4 9.4-27.9 4.3-60.2-13.3-83.8l14.2 10.7-3.6-85.5c7.5 20.6 11.7 42.2 12.5 64.1 6.4-30-2.5-62.8-23.1-85.4 4.3-20.6-1.3-43.1-14.9-59.2l19.2 17.7c-.6-33.6-6.5-67.1-17.6-98.8 7.7 9 13 20 15.3 31.6l-3.5-38.4 8.8 8c10.5-25.1 6.8-55.7-9.5-77.5 9.1 21.2 11.6 45.2 7.1 67.8-1-14.9-2.1-30.2-8.2-43.9s-18.4-25.6-33.3-26.9c8.6 16.7 13.6 35.2 14.6 53.9-10.4-34.8-28.3-67.4-52-95l5.6 20.1c-28.7-7.5-52.5-31.2-60.2-59.8L285 539.8c-1.4 8.9-3.8 19.3-12.2 22.8l13.6.4c-18 13.4-23.3 41-11.8 60.2-5.1-1.3-9.4-5.9-10.4-11.1-6.9 33.4-5.1 68.5 5.2 101-12.4-5.6-15.6-21.2-17.3-34.7l-12.9-100.9c12.2 24.9 18.2 52.9 17.1 80.6 5.2-30.4 1.2-62.4-11.5-90.5 5 2.4 9.5 5.9 13 10.2l-19.3-34.1c5.6 15.9 32.4 12.2 38.7-3.3s-2.9-33.4-15.6-44.4c3.6 6.3 11-4.1 10.5-11.3-1.8-25.7-.2-51.7 4.8-77l-93.3 23.9c12.3-10.6 28.8-14.3 44.7-17.7 15.8-3.4 32.3-7.2 44.5-17.8 12.2-10.7 17.8-30.6 7.7-43.3 15.6 30.6 38.3 57.6 65.8 78.2-6.1-44.6-64.9-72.1-61.1-116.9l21.8 45.5-.5-15.8c21.4 16.5 28.7 45 42.1 68.5 17.3 30.4 46.6 53.8 80.1 63.9l-79-128.6 2 29.8-33.2-65.3c-3.7 4.4 8.1 5 9.2-.7 1.2-5.6.1-13.7 5.7-15.2-.3 11.5 1.4 23 4.9 33.9m166 36a46.6 46.6 0 0 1 2.9 19.9c3.4-11.9 4.4-24.5 2.9-36.7 8.6 5 9.4 17.1 7.3 26.8s-6 19.6-3.3 29.2c1.5-10.8 7.4-21 16.2-27.5 3.1 8 1.5 17.7-4 24.3 1.4-5.3.9-11.1-1.6-16-.6 21.8-12.7 42.9-31.1 54.5-18.5 11.6-42.7 13.4-62.6 4.6-5.7-2.5-11.1-6-14.8-11-3.7-5.1-5.2-11.5-6.7-17.7l-6-25.5c-1.1 6.4-.8 13 .7 19.3-7.4-7.6-9.7-19.6-5.7-29.4-9.1 8.8-4.8 24 1.1 35.2 20.2 38.5 53.6 72.7 56.9 116.1 6.7 86.4 13.3 173.2 8.4 259.8 3.9-2.9 9.8-3.1 13.9-.4-1.4-10.9-1.4-22 0-33l-7.5 13.9c-2.7-11.1.1-22.6 2.3-33.8 7.5-37.2 9.4-75.4 11.3-113.3.2-4.5.2-9.5-2.9-12.7s-10.2-1.6-9.8 2.9c-2.7-2.8-.3-8.6 3.6-8.5-3.9-4.4-4.4-11.6-1-16.5 10.5-15.1 14.5-34.6 11-52.6l-3.8 8.1c2-11.7 1.4-23.9-1.8-35.3 2.2 2.4 4.3 4.9 6.5 7.4 8.1-26.8 22.6-51.6 41.9-71.9 11.2-11.8.7-32.1 6.8-47.2 4.5-11.3-1-23.7-3.5-35.6-3.6-17.3-.7-36 8.2-51.4l2.8 6.6 3.4-10.5c1.8 1.6 4.3 2.5 6.7 2.5-5.1 6.8-5.5 16.9-.7 24-2.8-14 2.6-29.2 13.5-38.3l1.1-12.8c-.3 2.8 4.4 3.7 6.1 1.4 1.6-2.3.9-5.4-.3-8-8.1-17.3-30.4-21.5-49.5-23.4l9.5-4.2c-5.4-1.7-11.1-3.4-16.8-2.4-5.6.9-11.1 5.4-11.1 11.1-1.8-3.1-5.3-5.2-8.9-5.2 6.4 10 5.1 22.9 3.6 34.6-1.4 10.3-5.9 23.4-16.2 23.1 5.2 8.5 14.4 14.6 24.3 16 6 .9 6.7 10.3 2.2 14.3-4.6 4-11.2 4-17.3 3.8l-65.9-2.1c-8.2-.2-18.3-1.9-20.7-9.7l48.9-23.5c-10.5 1.7-21.5-6.5-22.8-17-2.3-18.9 21.4-31.2 24.9-49.9l-21.7-2.5c1.2 4.2 5.9 7 10.1 6.2-6 11.5-20.7 17.6-33 13.8 3.6-1.3 7.3-2.5 11-3.7-10.2-9.2-24.8-13.2-38.2-10.4s-25.2 12.2-30.9 24.7c-6.3 14-4.9 30.5.6 44.9 5.4 14.3 14.6 26.9 23.6 39.4 1.1-.8 2.3-1.5 3.5-2.2l1.8 12.5c3.7-16.6-1.6-34.9-13.6-47l4.4 19.1c-6.5-7.4-9.9-17.5-9.2-27.3l-7.4 12.7c3-8.2 3.1-17.5.2-25.7-2.9-8.1-7.7-18.7-.8-23.7 7.7 20.1 18.7 38.9 32.4 55.5.9-1.9 1.7-3.8 2.6-5.7 6 15.9 6.7 33.7 2 50 6.2-6.6 10.7-14.6 13.2-23.3 5.8 12.9 5.8 27.5 7.4 41.6 1.6 14 5.6 29 16.7 37.8 2-4 .1-9.5-3.9-11.5 5.4-5.4 7.4-13.8 5.2-21.1 4.5.4 8.5 4.2 9.2 8.6-3.9 4.1-6.2 9.7-6.2 15.4 1.9 2.2 4.7 3.5 7.6 3.7-3-9.1-.5-19.8 6.3-26.7 2.7 1.1 4.8 3.6 5.4 6.4 3.7-10.7 6.3-25.1-3.3-31.2-4-2.5-9-2.6-13.4-4.2s-8.6-6.2-6.9-10.5c3.4 2.6 9.1 1.1 10.7-2.9 14.5 7.5 33.1 6.4 46.6-2.7.5 11.2-12.3 17.3-19.9 25.4-10.4 11.2-11 30.1-1.4 42l2.8-32.8c1 5.1 5.8 9.3 11 9.5-.7 6.7 2.6 13.7 8.3 17.4-3.9-13.9-1-29.4 7.7-40.9-3.6 10.6-5 21.9-4.2 33 5.8-12.6 9.5-26.2 11.1-40m-45 549.2c-3.2 14.4-2.9 29.4-2.6 44.3l1.8 95c5.9-14.5 7-30.9 3.2-46.1l4.8 1.5c.4-3.5 2.2-6.8 5-8.9 4.6 12.4-4.8 26.1-2.7 39.3 1.2 8 6.6 14.9 7.2 23 .4 4.4-.8 8.9-.6 13.3.2 4.5 2.2 9.4 6.5 10.7l-.9-56.1-2.1-141.3c-.1-5.3-.8-11.6-5.4-14.1v10.2c-10.4-7.8-12.9-22.2-13.4-35.1-.4-13 .1-26.9-6.8-37.9l6.3 91c.2 3.7.5 7.5-.3 11.2m-2.5-662.6c1.6.1 3 1.5 3.1 3.1-3.4 1.4-7 2.9-9.2 5.9-2.3 2.9-2.5 7.7.5 9.9.2-3.1 1.2-6.1 3-8.6 3.9 1.9 2.2 7.8 0 11.5l-8.4 13.9c-.5-1.8-1-3.5-1.4-5.3-4.3 3.2-6.4 8.8-5.4 14 6.8-.5 14.5-.7 19.4 4.1 2.4 2.4 4 5.9 7.2 6.9 3.1 1 6.4-.9 8.8-3.2 2.4-2.2 4.6-4.9 7.6-6 3.1-1.2 7.4.2 7.8 3.4 3-3.4 2.6-8.6.7-12.7s-5-7.5-7.2-11.4c-4.5-8.3-4.5-19 .2-27.3 1.1 8.9 3.1 18.9 10.7 23.5.6-3.8 2.7-7.3 5.6-9.7-6-2.1-8.3-9.3-12-14.6s-9.6-9.1-16-10.4c-2.5-.5-3.3-3.6-4.1-6.1-2.4-7.6-8.9-13.7-16.6-15.7-7.7-2.1-16.3.1-22.1 5.5 7.4 5.1 15.7 8.9 24.4 11.3 3.5.9 5.7 4.4 6.1 7.9.3 3.5-1 7-2.7 10.1M289.3 424.5c-1.9-7.6-2.3-15.5-1.1-23.2 1-6.9 3.2-14.3.2-20.6-10.7 39.7-13.5 81.6-8.1 122.3 7.6-35.1 15.2-70.4 17.2-106.2.1-2.2-.9-5.2-2.9-4.6l-5.3 32.3m177.8 369.8c1.3 3.1 4.4 4.9 7.1 7 2.6 2 5.1 5.2 4.2 8.4-1 3.5-5.1 4.8-8.6 5.5-2.5.5-4.7-2-5.2-4.4-.5-2.5-.1-5.1-.6-7.6s-2.5-5-5-4.6c3.8 16.4 6.2 33.2 6.9 50 .2 4.9.2 9.8 1.7 14.5 1.5 4.6 4.6 9 9.1 10.7l.1-48.1-9-4.5c7.7.8 15.3-6.2 15.1-13.9s-8.1-14.3-15.8-13m24.4-589.2c1.5-1.9-1.6-4-3.8-5.2-4.5-2.5-6.3-7.7-8.4-12.4-2-4.7-5.3-9.7-10.4-10.1l8.2 14.7c.3.5.6 1.1.6 1.8 0 2.4-3.6 2.3-6 2-11.8-1.2-20 13.8-31.9 14.5 1 1.8 3.5 2.1 5.5 1.6 2-.4 4-1.3 6-1.1 3.3.4 5.4 3.4 8.2 5.1 7.1 4.5 16.6-.2 22.3-6.3l-5.9-3c4.4-3.2 10.6-3.8 15.6-1.6m.7 798.1c-.1-20.7-.8-41.4-1.9-62.1-.2-3.3-.7-7.2-3.6-8.9-1.6 19.7-1.5 39.5.4 59.2.4 4.4 1.3 9.5 5.1 11.8m-4.9-258.3c-1 3.3-1.1 6.7-1.2 10.2-.3 10.5-.6 21.1-.3 31.6.1 2.8 1 6.4 3.8 6.5.8-6.6-.5-13.2-.8-19.9-.9-23.9 11.6-48.4 4-71.1.6 14.4-1.3 28.9-5.5 42.7M379.7 219.6c1.3-.2 2.7-.4 4-.5-.3 2.5-2.8 4.1-5.2 4.9s-5.1 1.3-6.8 3.1c-1.8 1.8-1.9 5.5.5 6.4 11.4-11.5 29.6-12.2 45.8-11.3 0-2.7-3.3-4.2-6-4.8-8.1-1.7-16.4-2.2-24.7-1.6-3 .2-6.5 1-7.6 3.8m97.8 117.9L467 322.7c-1.2-1.7-2.4-3.5-4.2-4.5 1.8 3.5-.9 7.7-3.9 10.4-2.9 2.6-6.5 5.3-7.1 9.2 8.2 3.1 17.5 2.9 25.7-.3m30.6-113.4c1.4.7 2.8 1.3 4.1 1.9.9-.7.4-2.1-.5-2.7-1-.5-2.1-.3-3.2-.2l-22.9 3.1c-2.3.3-4.7.6-6.7 1.9s-3.4 3.8-2.6 6c.7 2 2.8 3.1 4.9 3.3 6.1.5 10.7-5.3 16.5-7.2 4.1-1.4 9.9-1.8 10.4-6.1M459.8 637c0-7.7-.1-15.9-4.6-22.1-.8 14.4-.3 28.9 1.6 43.3 1.8.8 3.1-2.1 3.1-4.1l-.1-17.1m35.5-31.7l-3-12.2c-2.3 3.2-1.5 7.7.2 11.3 1.6 3.6 4 7 4.4 10.9.4 4.1-1.2 8.9 1.7 11.9a63.12 63.12 0 0 0 2.3-30.2c-.3-1.6-2.2-3.7-3.2-2.3 1 3.6 0 7.7-2.4 10.6m51.6-255.1l-2.2-25.1c-3.5 5.8-7.1 11.7-8.6 18.3-1.4 6.6-.3 14.2 4.5 18.9.3-4.7-1.3-9.2-1.7-13.9-.5-4.6.6-10 4.6-12.3-.8 4.9.4 10.1 3.4 14.1m37.9-107.1c-.5-2.1-.9-4.2-2.2-5.9s-3.6-2.8-5.5-2c5 9.9 13.4 18 23.4 22.6.9-.9.1-2.4-.6-3.3l-13.1-16.8c.4 2-.4 4.2-2 5.4M444.9 571.2l-1.3 25.6c0 1.3 0 2.6.8 3.5.8 1 2.3 1.1 3.3.3l1.4-32.9c-.6-1.1-2.4-1-3.2 0-.8.9-.9 2.3-1 3.5m116.2-247.8c-1.5-1.2-3.3 1.3-3.4 3.2-.2 5.4 2.5 10.6 1.7 15.9-1.1 6.9-7.9 12.6-6.4 19.4 7.8-10.3 11.1-23.9 8.9-36.7-.1-.6-.3-1.3-.8-1.8m-193.3 43.7c2.8-1.7 2.2-5.8 1.1-8.8-3.8-10.5-9.4-20.2-16.6-28.7-.6 3.8 1.9 7.2 4 10.4 5.6 8.1 9.5 17.4 11.5 27.1m22.6 2.5c2.9-7.2 3.9-15.2 2.9-23-.5-4.2-1.6-8.2-2.7-12.3-2 0-3.1 2.3-2.9 4.2s1.2 3.6 1.9 5.4c2.9 8.2-2.8 17.8.8 25.7m-34.3-22.3c-4.1-5.9-6.8-12.7-7.9-19.8-.3-2.2-.4-4.7.7-6.6-.4-1.2-2.3-1.1-3.1-.2s-.9 2.3-1 3.6c-.1 4.6 0 9.4 1.6 13.8 1.6 4.3 5.1 8.3 9.7 9.2m19.3 17.3c1.5 5.3 3.6 10.4 6.3 15.2 1.9 3.3 4.2 6.6 7.5 8.4L376 357.3c-1.8 1.9-1.3 4.9-.6 7.3m131 42.1c.7-1.5 1.5-3.1 1.5-4.9.1-1.8-.8-3.7-2.2-5l-10.2 20.3c5.3-.3 8.6-5.6 10.9-10.4m-54.4 287c-5 7.2-4.3 17.9 1.5 24.4-.2-8.1-.7-16.3-1.5-24.4m41.2 234.7c-2.4-3.3-3.5-7.5-2.9-11.6.2-1.7.7-3.5.5-5.2-.3-1.8-1.6-3.5-3.4-3.4l-.3 12.9c0 2 0 4.2 1 5.9s3.6 2.7 5.1 1.4M263.5 576.2c-.5-1.4-1.9-2.9-3.1-2l2.1 23.3c3.2-6.6 3.6-14.5 1-21.3m303.4-241.5c4.4-.8 6-6.3 5.9-10.7-.2-3.5-.8-6.9-2-10.1-1.7 6.8-3 13.8-3.9 20.8m-228.1-67.1l-2.1-8.1c-1-.2-2.1-.4-3.2-.5-.7 6.5 1.6 13.2 6 18-.1-3.1-.1-6.2-.1-9.4m105.8 341.6c-1.5 6.3-1.5 13 .2 19.4.3 1.2 1 2.6 2.2 2.6.7-7.4-.1-14.9-2.4-22m56.1-20.8c.9-4.7.9-9.6 0-14.3-.2-1.2-1-2.7-2.2-2.3-2.6 5.3-1.7 12.1 2.2 16.6m34.8-355.1c-2.9-.2-6 .7-8.3 2.5-1.3 1-2.4 2.3-3 3.8 4.6 1.9 10.5-1.4 11.3-6.3m-111.7 6c1.2-.6 2.5-1.2 3.7-1.7 2.3-1.2.4-5.3-2.2-5.2-2.7 0-4.6 2.5-5.8 4.8.8 1.4 2.6 2.2 4.3 1.9m-.2 190.1c-.8-3-2.1-5.8-3.9-8.2-1.4 5.8.6 12.2 5.1 16.1.9-2.6.5-5.6-1.2-7.8m-21.4-197.7v5c.9.5 1.7 1 2.6 1.5 1.8-1 2.6-3.3 2.3-5.4-.4-2-1.5-3.8-2.6-5.5-1.8.3-3 2.7-2 4.3m53.5 178.4c-1.2 2.8-1.1 6.1.3 8.8-2.4.4-4.3 2.8-4.2 5.3 3.3-.1 6.6-1.3 9.1-3.5-1.3-.2-2.5-.4-3.8-.5.4-3.4-.1-6.9-1.4-10.1m-62.7 58.7c.9 1.8 2.1 3.4 3.7 4.6.6-4.6-.6-9.3-3.2-13.1-1.9 2.4-2.1 5.9-.4 8.4M583.2 293c2.6-2.5 3.4-6.7 2-10.1-3.6 1.7-4.7 7.2-2 10.1m-90.4 840.6c.3-2.4-.7-4.9-2.6-6.5-.6 4-.6 8.2.1 12.2 2.2-.6 3.4-3.5 2.2-5.5m-53.6-698.2c.2-2.1-1.5-4.2-3.6-4.5a19.98 19.98 0 0 0 0 9.1c2.1-.4 3.8-2.5 3.6-4.6m206.3 172.3c-3.1 2.2-4.3 6.7-2.8 10.2 3.1-2.2 4.3-6.7 2.8-10.2M509.8 232.7c-2.1-.3-4.3 1.8-4 4 1.2.2 2.2 1.2 2.5 2.4a20.7 20.7 0 0 0 4.8-5.4c-1.1-.4-2.2-.8-3.2-1.1m-8 273.1c-2 2.7-2.6 6.4-1.5 9.6 3.2-2.2 4.4-6.9 2.5-10.3m37.3-99c1.6-2.6.6-6.5-2-8.1l-.5 6.8c0 1 0 2.1.7 2.7.8.6 2.3-.3 1.7-1.1M358 231.7c.5-1.9 1.1-3.8 1.6-5.7a11.59 11.59 0 0 0-6.5 7.8c1.7.7 4-.4 4.5-2.3m193.2 140.1c.9-2 1.5-4.2 1.8-6.4-3.5 1.8-5.4 6.3-4.4 10 .9-1.1 1.8-2.3 2.7-3.5m-79.3-147.9c1.7 2.3 4.8 3.5 7.6 3-1.3-2.7-4.5-4.4-7.4-3.9m1 529.8c-.9 1-1.8 2.1-2 3.4s.7 2.9 2 2.9c1.4 0 2.3-1.6 2-2.9-.2-1.3-1.1-2.4-2-3.4m58.9-301.1c.2 1.2.3 2.3.4 3.5 2.3-2.6 3.5-6 3.6-9.3-2 1.3-3.4 3.5-3.7 5.8m-125.9-83.8c-.9 1-.3 2.9 1 3.2 1.9-2.1 2.1-5.6.5-8-1.2 1.2-1.8 2.9-1.8 4.6m-63.6-76.5c-.3-2.8-1.2-5.6-2.4-8.1-2.1 2.6-.7 7.2 2.5 8.2m9.7 162.3c.3 1.1 1.7 1.7 2.7 1.2-.9-2.8-3.4-5.1-6.3-5.8.2 2 1.6 3.9 3.4 4.8m67.7-230.9c1.4 2.4 6.1.5 5.3-2.2a5.94 5.94 0 0 0-5.2 1.8m120.2-15.8c.6-.8 1.5-1.3 2.5-1.4a6.99 6.99 0 0 1 1.6 4.4c-1.8 1.4-4.7-.9-3.9-2.9M278.3 596.2c1.4 1.7.1 4.8-2.1 5-.4-1.8-.6-3.7-.3-5.6.7-.6 2-.3 2.4.6m159.1 430c-1.1.9-2.7 1.3-4.1.9-1.2-1.9 1.1-4.7 3.1-3.9.4.9.7 1.9 1.1 2.9m355.9-284.6c1.2-.1 1.5 2.1.4 2.4-.9 1.8-4 1.6-4.6-.2-.5-1.9 2.4-3.7 3.6-2.1m-525.8 22c1.6-.7 3.6.2 4 1.9.4 1.6-.9 3.4-2.6 3.5-1.3-1.2-1.8-3.2-1.3-4.9m22.6-192.4c1.8 2.1 1.6 5.6-.3 7.5-2-1.8-2.2-5.3-.4-7.4m-37.9 498.6c2.3-.5 4.8 1.9 4.3 4.2-2 1.7-5.6-1.4-4.1-3.6M441.9 43.6c1.2 1.2 1.4 3.2.5 4.6-2.8-.4-4.4-4-3-6.3l2.5 1.5m130.9 486.2c.4 1-1.3 1.8-1.9 1l-1.2-4.9c1-.9 2.7-.8 3.6.3.9 1 .7 2.8-.4 3.6M406.3 786c-2 .3-4.5.3-5.5-1.4 1.5-1 3.1-2.1 4.8-1.7s2.5 3.2.9 3.8m-120.7-.1c1.5-1.6 4.1-2 6-1 .4 1.3-.3 2.8-1.4 3.4l-4.7-2.1m272.1-270.3l.1 3c-1.2.8-2.9.8-4.1 0l2.5-5.5c.8.6 1.4 1.5 1.5 2.5M315.6 327c.7 1.6-.3 3.8-2 4.2-1.7.5-3.7-.9-3.8-2.6l5.6-1m272.5 716.6c2.4.3 4.5 2.2 5.1 4.5-2.4 1.1-5.6-1.4-5.1-4.1m-47.4-394.8l2.3 1.6c-2.3 1.7-5.9.9-7.3-1.6 1.4-1 3.6-1 4.9.2m-76.5 331.4c1.4.2 2.2 1.8 2 3.2s-1.1 2.6-1.9 3.7c-1.7-1.8-1.8-4.8-.2-6.7M407.3 640c1.7.1 3 2 2.5 3.6-2.3 1.3-5.6.3-6.9-2 1-1.3 2.9-1.9 4.4-1.4m175.3-55.4c-1.1-1.7-.1-4.4 1.9-4.8 1.4 1.9 1.9 4.4 1.2 6.6-.6.5-1.5.7-2.4.5-.4-.7-.6-1.6-.4-2.5m128.8-109c-.8 1.6-2.6 2.7-4.4 2.6-.5-1.1-.7-2.4-.4-3.6 1.5-1.2 3.5-1.7 5.4-1.5.7.7.4 2.1-.5 2.4m-517 221.9l2.5-.3c1.9 2 1.3 5.7-1.1 7-1.4-1.8-1.9-4.3-1.2-6.4m275.2-625c-.5 1.1-2.4.8-3.1-.3-.6-1.1-.4-2.5-.1-3.7l2.4-1.5c1.7 1.2 2 4 .5 5.5M300.5 595c-1.2-1.7-1.7-4-1.4-6.1 2.8.6 4.6 4 3.6 6.7-.6.7-2 .4-2.2-.5m60.2-441.6c1.4-.9 3.2.8 3.1 2.4 0 1.6-1.3 2.9-2.4 4.1-1.7-1.7-2-4.5-.8-6.5m239.9 462.6c0-1 .8-1.9 1.8-2.1 1.2 2.7.7 6.1-1.3 8.3-1.5-1.6-1.8-4.3-.6-6.1M378 652.1c2.6.6 4.7 3 4.8 5.7-2.8.9-5.9-2.4-4.7-5.1m9.6 67.1c-2.6-1-3.3-5-1.1-6.9 2.4 1.1 3.2 4.9 1.2 6.7m161 27.5c-1.7 2.7-6.1 2.9-8 .4 1.9-1.6 4.8-2 7-.8m-471 32c1.2.6 2 1.9 2.2 3.2-2.6.6-5.5-.5-7.1-2.6.6-1.7 3.2-1.4 4.9-.7M370 763.3c2.9 1.3 3.9 5.4 2.1 8-2.2-1.8-3-5-2.1-7.6m36.3-222.9c-2.4.5-4.9-2.2-4.2-4.6 1.5.3 3 .6 4.2 1.6 1.1.9 1.6 2.9.5 3.9m341.2 311l2.1-4.8c2.7 1.8 1.4 6.9-1.8 7.2-.4-.7-.6-1.6-.4-2.5M585.1 716.4l-2.4-1.8c1.8-1.9 5.3-1.8 7.1.2-.5 1.9-3.2 2.7-4.6 1.4m45.1 393.8c1.5-.1 2.7 1.7 2.5 3.2-.3 1.5-1.4 2.7-2.4 3.8-1.8-1.7-1.8-5 0-6.8M320.9 905.5c-1.6 2.1-5.8.8-5.9-1.9a3.27 3.27 0 0 1 2.4-1.5l3.2 2.7m100.3 211.7c-.1 1.1-1.6 1.4-2.5.8-.8-.6-1.1-1.7-1.4-2.7l2.3-3.6c1.5 1.3 2.1 3.6 1.4 5.6m-56.1-500.5c0 1.4-.4 2.8-1.3 4-1.8-1.6-2.8-4.1-2.5-6.6 1.5-.6 3.5.9 3.2 2.6m-77.2 78.8c2.1.5 2.6 4 .6 5.1l-3.8-5.2c.9-.8 2.3-.9 3.2-.3M43 790.2c.3.5-.5.9-.9.5-.4-.3-.4-.9-.4-1.4.2-1.3.6-2.7 1.7-3.4 1.1-.8 2.9-.5 3.3.7-.5 1.5-1.8 2.8-3.4 3.4m535.5 246.6c-.3-.5.6-1.2 1.2-.9s.8 1.1.8 1.8c.2 1.9.1 3.9-.5 5.8-2.1-1.3-2.7-4.5-1.3-6.6m194.9-550.1c.2-1.7 1.1-3.4 2.4-4.5 1.1 2.6.7 5.7-1 7.9-1.1-.7-1.7-2.1-1.4-3.4M532.4 162.1c.9 1.3.3 3.3-1.1 4-1.6-2.3-2-5.4-.9-8 1.1 1 1.7 2.5 1.7 4m-146.8 880c-.7 1.2-2.5 1.4-3.5.5 1.2-2.1 2.7-3.9 4.5-5.5 1.1 1.6.6 4-1 5m88.4-518.5l1.6-3.5c1.5-.2 2.7 1.5 2.6 3 0 1.4-.9 2.8-1.7 4l-2.4-3.5"/><path d="M487.5 473c1.7 1.9 2.8 4.4 3.2 6.9-3 0-5.1-4.2-3.2-6.7m83.6 188.7l1.5 4.8c-.7 1.5-2.5 2.6-4.2 2.4-1.4-2.3-.4-5.6 2-6.9m217.8 168.5c2.9-1.6 6.8 2.2 5.4 5.2-2.6-.4-4.8-2.2-5.8-4.6m-425.6 291.6c-1.2 1.1-3.1-.5-3-2 .1-1.6 1.4-2.7 2.6-3.7 1.2 1.3 2.2 2.8 3 4.5-.6.7-1.5 1.3-2.5 1.4m377.4-642.5c.2-.7.3-1.5.4-2.3 3.2 1.1 3.6 6.5.5 8-1.6-1.3-2.1-3.9-1.1-5.7m100.8 439.6c1.2 2.2.8 5.2-.9 7.1-1.5-2.6-2-5.8-1.5-8.7.8-.8 2.5.3 2.1 1.4m-423 217.6c.2-3.1 4.1-5.4 7-4-.8 2.6-3.5 4.4-6.2 4.3m141.5-234.7c-2.3 0-3.1-4-.9-5 2.1 1.1 3.8 3.1 4.4 5.4-1 .9-2.7.6-3.5-.5m-140.5 242.5c-.5-.2-.1-1 .4-1 .5.1.8.6 1.1 1 .8 1.5 1.6 3.1 1.2 4.6-.4 1.6-2.6 2.7-3.7 1.5-.3-2.1 0-4.3.8-6.2m331.8-625c.7 2.9.7 5.9-.1 8.8-3-1.6-3.3-6.7-.5-8.7"/><path d="M430.8 650.6c-1.9-2-2.5-5.1-1.5-7.6 2.8 1.7 3.9 5.6 2.5 8.5M255.9 487.7l-3.4 4.5c-1.4-2.6-1-6 .8-8.3l2.6 3.7M390.3 17c-1.1.5-2.7-.3-2.5-1.4 1.4-2.1 3.5-3.7 5.8-4.4.4 2.4-1.1 4.9-3.4 5.7m136.7 957.7l-3.1-6.1c1.8-.7 4 .2 4.8 1.9.9 1.7.2 4-1.4 5M390.5 761.1l.9 3.2c-2.8-.3-5.3-2.8-5.4-5.7.6-.5 1.5-.7 2.3-.4l1.9 3M155.5 863.8c-2.6-1.4-5.6-4.7-3.4-6.7 2.6 1.2 4.2 4.3 3.6 7.1m315.5 117.1c-1.3-1.4-1.3-3.8-.1-5.1 2.7 1.5 3.5 5.7 1.4 8.1-.9-.7-1.5-1.6-1.6-2.7m113.1 75.9c-.8-1.5-1.5-3.1-1.3-4.7.3-1.7 2-3.2 3.5-2.6 2.6 2.3 1.1 7.4-2.3 8m-62.5 79.8c-1.2-.4-1.7-2.1-1-3.1l8.2 1.1c.7 1.5-.8 3.3-2.4 3.5-1.7.3-3.3-.5-4.7-1.3m137.3-373.6c.1-2.2 1.5-5.2 3.6-4.5 1 2.6.5 5.7-1.1 8-1.1.2-2.3 0-3-.8s-.4-2.4.6-2.6m21.2-177.5c1.7 2.2.9 5.8-1.6 7-1.4-2.6-2-5.6-1.6-8.6 1-1.1 3.4-.1 3.3 1.5m-1.8 126.1l-2 3c-1.9-2-2.8-4.9-2.6-7.6 1.1-.6 2.3-.7 3.5-.4 1.2 1.3 1.7 3.2 1.3 5M562.3 840.1c-.7-1.2-.7-2.8.1-4 1.7 1.3 3.9 2.1 6.1 1.9.7 1.6-.2 3.7-1.8 4.2s-3.6-.5-4-2.2m278.5-18.3l3.1-.7 1.6 3.7c-2.2 2-6 1.9-8-.3l3.3-2.5"/><path d="M606.7 1091.6c.6 2.7-.2 5.7-2.1 7.7-2.3-2.5-2.3-6.7 0-9.3l2.4 1.4M374.9 832.6c-.3-2.3 1.2-4.7 3.3-5.5 1.7 3.2.4 7.5-2.7 9.3a4.86 4.86 0 0 1-.6-3.7m281.2 117.8c-3.3-1.7-4.5-6.5-2.4-9.6 2.6 2.1 3.8 6 2.7 9.3m-106.6 160.4l-2.5 2.6c-1.5-2.8-1.5-6.3.2-9 .7-.3 1.7-.1 2.3.4v6M427.4 819.9c-1.5-.4-2.5-2.2-2.2-3.7 3.3-.8 7.2.6 8.6 3.7l-6.5.3m-85.1-232.1c-.3 1-1.8 1.3-2.5.5l.4-8.4c3.2.7 4.4 5.5 2 7.7M250 1069.7c-.2 1.1-1.6 1.9-2.7 1.4-1.8-2.6-1.6-6.4.3-8.9 1.4 2.2 2.3 4.8 2.3 7.4m160.1-185c-1-2.4 1.2-5.1 3.7-5.6 1.5 2.9-.3 7-3.5 7.9-.2-.7-.3-1.5-.5-2.3m-36.8-60c1.5 1.4 1.3 4.3-.5 5.4-2.7-1.5-3.7-5.3-2.2-8 1.3-.2 2.4 1.3 2.6 2.6M340 548c1.7.7 3.3 1.7 4.6 2.9.5.4 1 .9 1.2 1.5.4 1.9-2.6 3-4.1 1.8s-1.7-3.4-1.8-5.3M182.7 675.6c0-1.8 1.1-3.6 2.8-4.4.6 3.2.6 6.6 0 9.9-1.9-1-3.1-3.3-2.6-5.5m389 165c-2.1-2.6-1.5-6.9 1.2-8.8 1.8 2.8 1.3 6.7-1 9m-13.7-626.5c2.1-2.7 6.3 0 8.6 2.7-2.8 1.3-6.4.1-8-2.5m-251.7-47.1c1.2-1.5 3.9.4 3.6 2.4-.2 1.9-2 3.2-3.6 4.3-1.4-1.9-1.1-4.8.6-6.5m253.9 596.3c-3-.2-5.9-1.4-8.1-3.3 2.5-2.6 7.7-.5 7.9 3m-294.7-444c-.1 2.2-1 4.3-2.5 5.9-1.5-3-1.2-6.8.9-9.4l1.5 3.5"/><path d="M526.5 576c-1.1-.9-1.6-2.5-1.2-3.8 2.9.7 5.5 2.9 6.7 5.6-2-.1-3.9-.7-5.6-1.8M138 809.9c-2.5-1.2-4.7-3.1-6.2-5.4 2.9-1.3 6.7 1.4 6.4 4.6"/><path d="M613.2 1012.2c1.6 2.3 2.5 5 2.4 7.8-3-1.4-4.5-5.4-3.2-8.4m-259.6-855c.3 1.2.1 2.5-.4 3.6-2.1-2.9-2-7 0-9.9 1.6 1.7 1.9 4.5.6 6.5"/><path d="M520.5 371.2c.7-1.5 2.4-2.4 4.1-2.1.7 3-.7 6.4-3.3 8-1.6-1.5-2-4.1-.9-6m-46.5 572.5c-1-2-1.4-4.3-1-6.6 1.8-.1 3.7 1.5 3.9 3.3.3 1.9-1.1 3.8-3 4.2M744.5 495c-1.7-3-.7-7.2 2.1-9.1a15.38 15.38 0 0 1 1.1 9.7c-.9.9-2.7.6-3.3-.5m25.3 108.2c.5-1.4 2.8-1.4 3.6-.1.7 1.3 0 3.1-1.3 3.9-1.2.7-2.9.8-4.3.5-1-.2-2.2-1-1.7-1.9.7-1.3 1.9-2.2 3.3-2.6M416.4 4.2c.9 1.8-.8 4-2.8 4.5-1.9.6-4 .1-6 .1 1.2-3.2 5-5.1 8.3-4.4m374 884.2c1.4-1.2 3.8-.4 5 1 1.2 1.5 1.5 3.5 1.7 5.4-3.3 0-6.4-3-6.5-6.4m-374.3-866l-4.8 1.6c-.4-3.8 4-7.2 7.5-5.9.1 1.8-1.1 3.5-2.7 4.1m-86.3 1102.3c.3.7-.9 1.2-1.4.6-.5-.5-.5-1.3-.4-2 .3-3 1.9-7 4.8-6.2.8 2.7-.4 5.9-2.7 7.5m22.7-48.6c-1.4-1.2-1.9-3.3-1.3-5 3.6-.2 5.8 4.2 5.7 7.9-1.9.1-3.7-1.1-4.4-2.9m79.7-909.8c-2.2-3-1.7-7.6 1.2-10 2.3 2.9 1.7 7.7-1.2 10m44.9-110.1l-.4-2.8c3.5-.4 7.1 2.1 8 5.5-2.7.7-5.7-.4-7.3-2.7M342.7 753.7c1 3 0 6.6-2.4 8.6-2.4-3-1.3-8.1 2.2-9.8M407 1152c-2 .6-4.3-.3-5.3-2.1-1.1-1.8-.7-4.3.8-5.7 2.1 2 3.6 4.6 4.3 7.4m229-301l-3.1-1.2c2.6-1.4 5.7-1.8 8.6-1.2l1.6 3.5c-2.4.6-5 .1-7-1.1M303.9 687c2.7.1 5.4 1.5 7 3.8-1.8 1.4-4.3 1.8-6.5 1.2-.7-1.5-.8-3.2-.6-4.9m191.1 428.5c-.2-2-.3-4.5 1.4-5.5 1.9 3.1 2.7 6.7 2.3 10.3-2-.6-3.6-2.6-3.6-4.8"/><path d="M326.2 578.1c-.1 2-1.2 4-3 5-.9-3.4 0-7.3 2.2-10.1 1.9.5 1.7 3.3.9 5.1M353 138.6c-.4 2.4-1.4 4.7-2.9 6.6-2-3.2-.9-8.1 2.5-10 .1 1.1.2 2.3.4 3.4m419.4 521.8l1.7-3.3c1.4 3.5 1.9 7.3 1.5 11.1-2.2-1.8-3.3-4.8-2.7-7.6m-84 475.5c-.1-2.9 0-6.2 2.2-8.1 2.6 2.4 1.3 7.6-2.2 8.3m-156 14.3c-1.9-1.3-3.4-3.2-4.1-5.3 3.1-.2 6.2 2.3 6.8 5.4-.4 1.1-2.4 1-2.6-.2m116.9-578.9c-.3-3.2-.1-6.5.5-9.6 1.6 3.6 2 7.7 1.3 11.6-1 .5-1.7-1-1.8-2m165.4 404.1c.9.9 1.8 1.9 2.6 2.9-1.5 1.8-3.5 3-5.8 3.5-.4-2.2.8-4.7 2.9-5.6m-342.2-11.8c2.2 1.7 2.4 5.4.4 7.4-1.8-2.5-3-5.4-3.5-8.5 1-.7 2.6-.1 3 1m-256 179.2c1.2 1.7 2.5 3.5 2.2 5.5-.2 2.1-2.9 3.7-4.3 2.2-.6-.5-.8-1.3-.8-2-.3-2.6.3-5.3 1.7-7.5l1.6 1.3M724 581.2c3.5 1 5.3 5.9 3.2 8.9-.7 1-1.8 1.8-3 2.1-.5-3.6-.5-7.3-.2-11M344.6 695.6l1.3-6.4c2.3.5 3.7 3.2 3.3 5.5-.3 2.3-2 4.3-3.8 5.8l-.7-4.9m-54.9 17v5.2c-2.5-.3-4.5-2.9-4.2-5.5.3-2.5 3-4.5 5.5-4.1l-1.2 4.4M394 878.5c-1.8-1.2-3.8-2.7-4.1-4.9-.3-2.1 2.4-4.5 4-3.1l-.1 4.2c1.6.2 2.9 1.5 3.2 3l-2.6.6m223.9-145.1c1.8 1.8 1.8 5 0 6.8-2.5-1.8-4.4-4.5-5.3-7.5 1.7-.7 3.8-.4 5.2.8m-45.8-544.2c-1.2-2.2-.8-5.2.9-7.1 3 2.8 3.4 7.9 1 11.1-1.1-.9-1.8-2.5-1.7-4m39.1 503.6l-2.8-4c.5-1 1.1-1.9 1.6-2.8 2.9 1.4 5 4.5 5.1 7.8-1.1.9-3.2.3-3.6-1.2M356.1 888.1c-.1-2.7-.9-5.3-2.3-7.6 1.7-.4 3.5.2 4.6 1.5.9 1.5 1.7 3.1 1.4 4.8-.4 1.6-2.7 2.8-3.8 1.6m24.5 157.9c3.9-.4 7.9 1.2 10.4 4.2-3.8 1.8-8.9-.3-10.4-4.2m-24.7 58.1c1.7 3.3 1.6 7.4-.4 10.6-3-2.7-2.8-8.2.4-10.6M141.9 686.6c.9.9 1.3 2.2.9 3.4-2.6.3-5.3-1.8-5.7-4.4.5-1.6 1.8-2.9 3.4-3.5.8 1.4 1.2 3 1.3 4.5m145-456l3.4-4.5 2.6 1.5c-1 3-3 5.6-5.6 7.5l-.5-4.5m-58 442.1c-2-2.7-2.5-6.4-1.4-9.6 2 3.2 3.3 6.8 3.7 10.5-.6.8-2.3.2-2.2-.9M700 538.8c3 1.2 5.3 4 5.8 7.3-3.4-.2-6.3-3.6-5.8-7m-250.4 612.6l-7-4.2c3.6-.5 7.4.7 10.1 3.2-.5 1.2-2.1 1.7-3.1 1m172-330.2c-.8-1.7-1.2-3.7-.7-5.5.6-1.7 2.5-3.2 4.3-2.8 1.3 2.2 2.6 4.6 1.9 6.9-.6 2.4-4.4 3.6-5.5 1.4M608.1 1082c-.6 1.8-1.9 3.3-3.6 4.2-1.3-2.2-1.9-4.9-1.7-7.6 1.9-1.3 4.3-1.8 6.6-1.5.7 1.7.2 3.7-1.2 4.9"/><path d="M604.3 393c-3.4 1.3-6.2-3.7-5-7.1 3.4.7 6.5 2.8 8.5 5.8-.7 1.1-2.2 1.7-3.5 1.4M406.8 912.6l.3-5.7c4.6 1.8 5.1 9.4.8 11.8-1.2-1.7-1.5-4-.9-6m-128.7 160.5c-2.3-3.5-1.9-8.5.9-11.6 2 3.8 2.4 8.4 1 12.5-.6.5-1.9 0-1.9-.9m318.6-214.6c1.7 1.7 2.7 4 2.9 6.3-4.4 1.1-8.7-4.8-6.3-8.7 1.1.8 2.3 1.5 3.4 2.3"/><path d="M349.6 57.5c1.2-2.1 2.8-3.9 4.6-5.4 2 3.9-.5 9.3-4.8 10.4-1-1.5-.8-3.6.4-4.9m20.6 828c-1.6-1-3.4-2.1-4-4-.6-1.8 1-4.2 2.8-3.7 1.1.4 1.7 1.5 2.1 2.5l2.5 5.3c-1.1.5-2.3.6-3.4.4m16.5-28.5c.9.7 1.2 2 .9 3.1-2.2.5-4.1 2.6-4.1 4.9-1.3 1.2-3-1.1-2.8-2.9.4-2.9 2.9-5.4 5.8-5.8m280.4-163.6c2.8 3.3 2.4 8.8-.8 11.7-2.3-3.5-2-8.5.8-11.7m35.9 51.4c.3-1.1 1.8-1.7 2.8-1.1.6 3.8-.4 7.7-2.7 10.7-2.4-2.5-2.4-6.9 0-9.4m-549.3 273.9c1 .2 1.3 1.7.6 2.3-3.9.9-7.3-2.5-9.9-5.5 3.4-1 7.2.3 9.3 3m442.7-42c-.1 1.4-.8 2.8-2 3.6-1.3-3.1-1.5-6.7-.4-9.9 1.2-1.2 3.6-.4 4.1 1.2.6 1.7-.4 3.5-1.8 4.4M306.4 854c-1.4-1.6-2.4-3.7-2.7-5.9 4 .1 7.7 3.7 7.8 7.7-1.8.4-3.8-.4-4.7-1.9m-85.3 104c.9 4-.5 8.5-3.4 11.4-2.1-3.9-.5-9.3 3.4-11.4M530.2 764c-3.7-.6-6.8-3.8-7.5-7.5 3.7-.5 7.6 2.8 7.4 6.6m44.1-129.3c3.8 1.7 6.2 6.2 5.4 10.4-3.7-1.9-6-6.3-5.4-10.4m10.6 462.7c3.9.3 6.4 5.3 4.4 8.6-.6-2-2.9-2.7-4.4-4.1-1.6-1.3-1.9-4.6.1-4.8M443.6 1031c1.7 2.7 1.8 6.4.3 9.3-1.4-3.6-2.7-7.2-4-10.8 1.2-.5 2.9.3 3.2 1.7M352.6 638c2.1 1.5 1.3 5.5-1.2 6.2-.9-3.6-1.7-7.3-2.5-11 1.8.9 3.3 2.5 4 4.4m366.5 398.5c-3.3-2.7-4.9-7.2-4.1-11.3 2.9 3 4.4 7.2 4.1 11.3m-36.4 10.5l-.6 4.5-5.6-9.7c2.8-.3 5.7 2.3 5.6 5.2m-87.1-905.5c-.7-1.2-.7-2.7-.1-3.9 2.9 2.9 4.5 6.9 4.4 11-1.9-2-3.3-4.5-4.2-7.1m-91.5 894.3c-1.6-1.4-3.3-3-3.3-5-.1-2.1 2.8-3.9 4.1-2.3 2.1 2.6 3.2 6 3 9.3l-4-1.3m-208.5 114.3c-1.9-2.8-1.9-6.7 0-9.4 2.8 2.3 4.5 5.9 4.5 9.5-1.1 1.6-3.8 1.7-4.9.2M560.5 127c2.3 2.4 1.1 7.2-2.2 8.1l-3.4-9.5c1.8-1.1 4.5-.3 5.3 1.6m-125.9 737c2.2 3.7 1.8 8.7-.9 12-3.5-3.1-3-9.5.9-12m-110-109.1a10.09 10.09 0 0 1 3.1-4c1.1 4.5.6 9.3-1.3 13.5-2.6-2.2-3.3-6.4-1.6-9.4m244.8-575.5c.2 2-1.2 4-3.1 4.6l-3.3-9.9c3-1.1 6.8 1.9 6.2 5.1m-20.5 696.9c-3.6-3.4-3.7-9.7-.4-13.2 2.2 4 2.4 9.1.4 13.2m7.9-479.3c2.1-1.3 3.9 2.4 3.1 4.7-.9 2.5-2.9 4.5-5.4 5.4l1-7.3c.2-1 .4-2.2 1.3-2.8M320.8 896.5c1.5.3-.1 2.6-1.6 2.6-3.6.1-7-2.8-7.5-6.3 3.4-.3 6.9 1.2 9.2 3.8m525.8-293.9l-2.4-6.2c-.3-.5-.5-1.2-.4-1.8.3-1.1 1.8-1.6 2.8-1.2 1.1.5 1.8 1.6 2.2 2.7.9 2.3.8 5-.2 7.3-.5.9-2.2.1-1.7-.8M418.5 887.2l-3.5 5.3c-3.3-3.5-.1-10.5 4.7-10.2-.7 1.5-1.1 3.2-1.2 4.8m-309.4 32.3c-1.8 3.8-5.2 6.8-9.2 8.2 0-4.6 4.6-8.8 9.2-8.2m208.3-219.3c.9 1.8-.1 4.3-2 5-1.6-3.8-2.4-7.9-2.3-12 2.3 1.5 3.9 4.2 4 7M258 402c1.9-3.9 6.5-6.2 10.8-5.7-2.2 3.7-6.6 5.9-10.8 5.7m216.7 698.4c-1.8-3.5-3.4-7.2-4.8-10.9 4.7.8 7.4 7 4.8 10.9"/><path d="M461.8 926.6c-.7.7-2 .8-2.8.1 1.1-3.5 2.8-6.9 5.1-9.8 1.1 2.8 1.8 5.7 1.8 8.7-1.4.4-2.7.7-4.1 1m137.6-84.9c-.7-2.9-.8-5.9-.3-8.8 5.2 1.6 6.6 9.9 2.2 13.1-1-1.2-1.5-2.8-1.5-4.4m-77.9 221c1.5 1.4 1.3 4.2-.4 5.3-3.8-1.9-6.2-6.3-5.8-10.5 3-.7 6.3 2.1 6.1 5.2m45.3 19.9c-1.3-3-.4-6.9 2.2-8.9 3 3.8 3 9.7 0 13.5-.8-1.5-1.6-3-2.5-4.5m-43.9-281.1c1.9 2.6 1.1 6.7-1.5 8.5l-2.6-1.4c-.1-3.8.4-7.7 1.6-11.4a5.21 5.21 0 0 1 2.5 4.4M92.5 883.5c2.5 3.3 2.6 8.2.1 11.4-4.4-1.8-4.5-9.5-.1-11.4m506.2-395.9c.6-1.1 1.1-2.3 1.6-3.4 4.2 3.2 2.1 11.3-3.1 12.2.2-3 .8-5.9 1.8-8.7m-236.5 68.7c-2.6 1.3-6.1.4-7.7-2l7.2-2.8c1.3-.6 3.1-1 4 .1 1.4 1.8-1.5 3.8-3.7 4.3m273.4 273.1c-2.5 0-4.9-1.8-5.7-4.3-.9-2.8.5-5.9 2.7-7.8l3 12.1M329.1 692.4c-.1-4.6.6-9.2 1.9-13.6 4.1 3.5 3.1 11.3-1.9 13.6m393.6-161.7c-.9-2.9-.1-6.2 1.9-8.4 2.1 3.4 3.3 7.5 3.4 11.6a5.85 5.85 0 0 1-5-3.4M545.8 883.1c3.9.7 7.3 3.8 8.4 7.6a.8.8 0 0 1-.9.9c-4.3.2-8.2-4.2-7.5-8.5m-240.5-569c-1.8-2.7-2.1-6.5-.7-9.4 3.2 3.2 4.9 7.7 4.9 12.2-1.7-.2-3.3-1.3-4-2.9m3.9 806.3c-2.2-4.4-2.4-9.7-.4-14.2 3.3 3.9 3.5 10.1.4 14.2m133.4-202.7a3.12 3.12 0 0 1-2.5.5c-.4-2.3-3.2-3.8-5.4-2.8-1.6.7-2.9-2.2-1.6-3.4 1.2-1.3 3.4-1 5-.1 1.5.9 2.9 2.2 4.5 2.8v3m-89.7-153.2c2.3-.4 3.3 2.7 3.1 5-.2 2.7-.9 5.4-2 7.8-2.2-3.8-2.6-8.6-1.1-12.8m242.8-88c2.6-.1 5.2.6 7.4 1.9 1.7 1.1 3.2 2.6 3.6 4.5-4.4-.3-8.6-2.7-11-6.4M251 818.1c3.3 3.3 5.1 8.2 4.6 12.9-2.9-3.6-4.6-8.3-4.6-12.9m-20.8 132.1l-2.6 8.8-4.7-5.5c2.6-.1 5.2-1.4 6.8-3.5m41.6 183.5c-.9-3.2-1.8-6.6-1-9.8 4.1 2.8 6.3 8.1 5.5 12.9-1.5 1.8-3.9-.9-4.5-3.1"/><path d="M332.8 703.8c-1.4.7-2.8-.9-3.7-2.2l-4.3-7c4-.9 8.3 2 9.1 6 .3 1.2.1 2.8-1.1 3.2m206.4 164.3l-3.6 8c-3.1-.9-2.5-5.5-1-8.4.7-1.5 1.8-3.1 3.4-3.2s2.7 2.6 1.2 3.1M514.5 1039c3.6 3.1 5.9 7.6 6.2 12.3-5-1.2-8.2-7.5-6.2-12.3m105.9-271.9c.7 4 2.2 7.9 4.2 11.4-2 2.1-5.8-.2-6.3-3.1-.5-2.8 1-5.6 2.1-8.3M421.8 530l5.5 13.1c-5.3-1.3-8.3-8.3-5.5-13.1m140.7 198c-1.9-3.9-3.2-8.2-3.9-12.6 2.9-1.1 6.4 1.2 7.1 4.3s-.9 6.3-3.2 8.3M396.3 79.6c.1 1.9-2.4 3.1-4.1 2.3-1.7-.9-2.5-2.9-2.7-4.8-.1-1.8.2-3.7 0-5.6.2-1.1 1.7-1.8 2.7-1.3a17.72 17.72 0 0 1 4.1 9.4m386.1 726.5c2.5-.3 4.8 2.2 4.5 4.7-4.7.8-9.7 0-13.9-2.4 2.3-2.6 6.2-3.7 9.6-2.8"/><path d="M691 724.6c0 1.1-.1 2.4-.8 3.3-.4.7-1.1 1.2-1.9 1.3-3.5-4.4-2.6-11.6 1.8-15.1.7 3.5 1 7 .9 10.5M396.7 605.7c.9-1.2 3.1-.6 3.8.8s.4 3.1 0 4.6l-1.7 7.7c-2.4 1.3-4.5-2.6-3.7-5.2.8-2.7 2.6-5.3 1.6-7.9M311 654.4c1.2 1.3 2 3 1.7 4.7-.2 1.6-1.7 3.2-3.4 3s-2.9-2.5-1.8-3.7c-2.2-.8-4-2.6-4.7-4.8 2.6-1 5.7-.6 8 1.1m220.6 295.4c2.4 5.1 2.2 11.4-.7 16.3-1.5-5.1-2.1-10.5-1.9-15.8.8-.4 1.7-.6 2.6-.5m-96.2-11.4c1.1 2.8 5.7 2.3 7.3 4.8.6.8.7 1.9.3 2.9-2.6.8-5.7.9-7.9-.8-2.1-1.7-2.2-5.7.3-6.9m280.4 102c-.6 1.4-2.6 1.9-4.1 1.3-1.4-.6-2.4-2.1-3-3.5-1-2.6-1.1-5.5-.3-8.1 3.1 2.9 5.7 6.4 7.4 10.3m-283.3-49.5c-2.3-2.4-1.5-6.4.4-9 1.2-1.8 2.9-3.2 4.9-4.2.4 4.9-1.6 10-5.3 13.2m275.5-428.6c-1.5 1.1-3.9.6-4.9-.9 3.1-3.7 8.3-5.6 13-4.6-1.6 2.9-4.7 4.9-8.1 5.4m-133.9 196c-1.8-1.9-2.8-4.6-2.8-7.3 4.4 1.6 8 5.2 9.8 9.5-2.5.9-5.4-.1-7-2.1m-94.2-636.1c-2.9-1.5-5-4.4-5.6-7.6-.5-2.3-.1-4.8 1.2-6.8 2.5 4.4 4 9.4 4.4 14.4M744 629.6c-.2 1.6-.8 3.2-1.7 4.5-.7-2.1-2.4-3.8-4.5-4.4 1.8-3.3 3.7-6.5 5.5-9.7.7 3.2.8 6.4.5 9.6M329.9 895.1c3.4 3.5 5.5 8.3 5.9 13.2-5.2-1.8-8-8.2-5.9-13.2m117.8 29.6c.8 2.9-.2 6.3-2.3 8.4l-6.6-6.5c1.9-1.5 4.9-1.2 6.5.6a4.69 4.69 0 0 1 2.3-3m-48.8-45.8c4.3 2.2 7.4 6.8 7.8 11.7-4.5-2-7.7-6.8-7.8-11.7m142.8-69.2c1.3-.4 2.3 1.3 2.6 2.7.8 4.2-.3 8.8-2.9 12.2-2.9-3.8-3.3-9.4-1-13.6.3-.5.7-1.1 1.3-1.3M234.2 572.4c-1.6-2.1-3.3-4-5.3-5.7 4.8-2.3 11.4.7 12.9 5.8-2.5 1.4-5.5 1.7-8.2.7"/><path d="M557.2 492.4c-1.8-2.7-1.8-6.5.1-9.1 1.8 2.2 3.8 4.6 4.4 7.5s-.7 6.4-3.5 7.3c-1.4-1.4-1.9-3.6-1.2-5.4M348.6 764.1c-.4 2.2-1.6 4.6-3.9 5.1-2.2.5-4.6-2.4-3.1-4.1 2.5-2.7 4.4-5.9 5.7-9.3 1.3 2.5 1.8 5.5 1.3 8.3m92.9 343.4c-.5 5-3.8 9.6-8.4 11.7-1-5.3 3.1-11 8.4-11.7m228.2-312.8c1.4 2.9 2 6.2 1.9 9.4-2.3-1.7-4.5-3.7-5.6-6.3s-.7-6.1 1.5-7.8l2.5 4.5m99.8-160.6c-3.7-2.2-4.1-8.4-.6-11 1.8-1.3 4-1.6 6.1-1.8-.6 4.7-2.5 9.1-5.5 12.8m-364.1 471.7c-1.2 2-3.5 3.3-5.8 3.2-.1-5.5 3.4-10.9 8.6-12.9a11.09 11.09 0 0 1-2.9 9.5m6.2-600.3c4.2.6 8 3.2 10.1 6.9.8 1.3 1.3 2.9.7 4.3-5.1-1.7-9.3-6-10.8-11.2M296.7 197.4c.2-1.1.5-2.3 1.5-3 .6-.5 1.6-.6 2.3-.3 1.3 5.7-1.5 11.9-6.6 14.7l2.8-11.4"/><path d="M302.6 627.6c3.9 4.2 6.1 10.1 6 15.8-4.9-3.4-7.4-10-6-15.8m333.3 156a20.43 20.43 0 0 1 4.9 7.3c-5.4-.8-10.1-5.2-11.3-10.5 2.4-.6 5.2.9 6.1 3.3m34.4-39.5c3.5 2.7 6 6.7 6.9 11 .3 1.5.1 3.4-1.4 3.6-3.5-3.9-5.6-9.3-5.5-14.6M458.5 480.1c.2-2.7 2.2-5.2 4.9-6 1.8 5.2-1.1 11.6-6.2 13.7-.8-.2-1.3-1.3-.9-2 .7-1.9 1.5-3.7 2.2-5.6m156.5-241c.1-3.8.9-7.6 2.5-11.1 4.8 2.3 7.8 7.7 7.2 13-2.8-1.9-6.3-2.6-9.7-1.9M445.1 846.8c2.6 5.7 2.4 12.6-.5 18.2-4-5.2-3.8-13.2.5-18.2m-364.9 90c5.2 3 8.3 9.3 7.5 15.3-5.3-3-8.4-9.3-7.5-15.3m593.9-74.6c-.7-2.4.2-5.2 2.1-6.9 2 2.3 4.1 4.7 4.7 7.7s-.8 6.6-3.7 7.4a12.12 12.12 0 0 0-2.9-8.2"/><path d="M618.4 789.8c1.2 6-1.3 12.6-6.2 16.3-1.4-6 1.2-12.8 6.2-16.3M413.3 69.3a15.84 15.84 0 0 1-3-11.3c.2-2.5 1.1-5 2.4-7.1 2.6 5.7 2.8 12.5.6 18.4M108.2 733.4c-2.7-1.5-4.6-4.3-5.2-7.3 5.6.6 10.6 5 11.9 10.5-2.5-.5-4.8-1.7-6.6-3.4m166.4-17.4c-.5-.8-.9-1.6-.9-2.5 0-1 .7-1.9 1.7-2.2 4.4 2.8 7.3 7.8 7.7 13-3.4-2.1-6.4-4.9-8.5-8.3"/><path d="M332.2 569.7c2 6 1.3 12.9-2 18.3-1.6-6.1-.8-12.7 2-18.3m-22.5 481.8c-.6 2.1-3.8 1.4-5.3-.2-3.4-3.9-3.4-10.3-.1-14.1 2.5 3.9 4.3 8.2 5.3 12.7.1.5.2 1.1.1 1.6m290.1-695.6c-.3-6 1.7-12.1 5.5-16.8 3.9 5.6.9 14.6-5.5 16.8m93.2 697c-.8 0-1.4-.6-1.9-1.2-3-3.3-5.6-7-7.8-11 2.2-1.2 5.1-.4 6.9 1.3 1.9 1.6 3 3.9 4 6.2.8 1.8.7 4.8-1.2 4.7"/><path d="M408.7 613c.1.7-.1 1.3-.4 2-1.6 4-3.8 7.8-6.4 11.3-1.2-3.8-1.6-7.8-.9-11.7.9-1 2.5-1.3 3.8-.7-.4-1.1.4-2.3 1.5-2.6 1-.2 2.3.6 2.4 1.7m277.8 53.1c-2.7.4-4.4-2.9-4.7-5.7-.3-3.8.4-7.8 2.2-11.2 2.9 1 3.5 4.8 3 7.9-.5 3-1.6 6.2-.5 9m-452.2 469c3.2 5.2 5.1 11.1 5.6 17.2-6.3-2.7-9.1-11.4-5.6-17.2m336.9.9c4.6 4 7.4 10.1 7.5 16.2-3.1 1.4-6.3-2.5-6.6-5.9-.3-3.5.7-7.2-.9-10.3m4.2-129.9c2.2.3 3.8 2.6 4.2 4.9.3 2.3-.4 4.6-1.1 6.9-.7 2.4-1.6 5-3.8 6.3-.5-6-.3-12.1.7-18.1M550 724.9c5.2 2.8 9.3 7.5 11.4 13.1-6.5-.2-12.1-6.7-11.4-13.1m-33 349.4c5.6 2.2 9.7 7.8 10.1 13.8-6-1.5-10.5-7.6-10.1-13.8m174.2-43.1c2.9 3.6 5.5 7.4 7.7 11.4-.9.8-1.7 1.7-2.6 2.5-1.9-2.5-4.5-4.5-7.5-5.5a40.38 40.38 0 0 1 2.4-8.4m-105-146.6c-3.4-4.6-6-10-7.5-15.6 6.6 1.2 10.7 9.7 7.5 15.6M26.4 773.9c-2.1-6.4-.4-13.8 4.1-18.8 1.8 6.5.2 13.7-4.1 18.8"/><path d="M315.3 801.1c-4.5-4.1-7.2-10.2-7.2-16.3 5.7 2.9 8.9 10.1 7.2 16.3m77.3 94c-4.3-4.8-6.4-11.6-5.5-18 4.3 4.8 6.4 11.6 5.5 18m293.3 212.5c3.9-3.9 9.4-6.1 14.9-6.2-3.1 4.5-8.1 7.7-13.4 8.7-.5-.9-1-1.7-1.5-2.5m-41-307.9l9.4 8.8c.9.8 1.9 1.9 1.5 3.1-2.8-1-5.7-2-8-4-2.2-1.9-3.8-5.1-2.9-7.9M525.6 364.4c-.9-6.2-1.1-12.5-.7-18.8 0-.9.2-2 1-2.5 2.3 6.9 2.2 14.6-.3 21.3m14.6-311.5l-2.4-8c-.4-1.4-.8-2.8-.5-4.1.3-1.4 1.6-2.7 3-2.4 3.5 3.5 4.9 9 3.5 13.8-.4 1.3-1.6 2.8-2.8 2.1-.5-.3-.6-.9-.8-1.4M266.4 433.1l-2.9-7.6c-.9-2.5-.7-6.7 2-6.4 2.8 4.1 4.6 8.9 5.2 13.9.2 1 .2 2.1-.6 2.7-1.5 1-3.1-1-3.7-2.6m359-219c2.8 4.3 4 9.7 3.1 14.7-.2 1.6-.7 3.2-2 4.2-4.1-5.3-4.6-13.2-1.1-18.9"/><path d="M306.9 927.4c4.1-2.2 8.9-3.2 13.6-2.7-.8 3.8-2.6 7.5-5 10.5-1.9-3.4-5-6.2-8.6-7.8M583.7 615c4 .9 4.7 6.5 3.9 10.5-.7 3.3-1.8 6.5-3.2 9.5-1.9-6.4-2.2-13.4-.7-20m-52 186.5c1.1-.9 2.9-.2 3.7 1s.8 2.7.8 4.1c-.2 4.9-1.2 9.8-2.9 14.4-2.3-6.2-2.9-13-1.6-19.5m113.9-9.3c-3.2-1.7-5.5-5.1-5.7-8.7-.3-3.9 1.7-7.7 4.6-10.5l1.1 19.2m-130.3 178l-2.9-5.7c-.4-.6-.7-1.3-.5-2 .5-1.9 3.4-.8 4.7.7 2.8 3.3 5.3 6.8 7.2 10.6-3.2.2-6.4-1.3-8.4-3.7m-168.6 72.2c2.2 2 2.5 5.4 2.2 8.4-.4 4.1-1.8 8-3.9 11.5-1.6-6.6-1-13.7 1.7-19.9m339.7-355.2c-2.1-5.5-4-11-5.8-16.6 3.8.2 6.3 5.2 4.2 8.4 3 1.4 3.9 5.9 1.6 8.2M462 485.8c3.1 1.7 5 5.3 4.8 8.8-.3 3.5-2.7 6.8-5.9 8.1l1.1-16.9m-177.8-14.9c-3.1-5.8-3.3-13.1-.6-19.1.5-.9 1.1-1.9 2.1-2.2.8 7.1.4 14.4-1.5 21.3M829 840.1c-1.3-.4-2.9-1-3.1-2.3l-1-6.6c6.2 1 11.8 5.5 13.9 11.4l-9.8-2.5M76.3 739.5c5.2-.8 10.7 2.7 12.2 7.8.5 1.9.5 3.9-.1 5.8-5.3-3.1-9.6-7.9-12.1-13.6m99.4-42.1c-.2 5.7-1.8 11.4-4.6 16.5-.5.8-1.3 1.7-2.1 1.4-2.8-6.5.4-14.9 6.7-17.9m203.6 125.2l-4.2-3.1c-.9-.6-1.7-2.1-.7-2.6 6.2.4 12.2 3.2 16.4 7.7-3 3-8 .5-11.5-2m-366.6-.5c4 .9 5.9 5.4 7.1 9.3.8 2.8 1.7 5.9.6 8.6-4.9-4.5-7.8-11.2-7.7-17.9m637.5 281c5.3 4.6 8 11.8 7.2 18.7-5.1-4.7-7.9-11.8-7.2-18.7M68.9 918.3c4.1 4.8 7.2 10.5 8.7 16.6-6.2-2.6-10.1-10-8.7-16.6"/><path d="M202.4 473.1c-3.1-1.7-6-3.8-8.5-6.4 2.4-4 8-5.6 12.1-3.4l-6.4 3.3c2.4.9 3.8 4 2.8 6.5m269 18c-1.5-5.8-2.7-11.7-3.6-17.7 3.7.9 6.7 4 7.5 7.7s-.8 7.8-3.9 10M541.7 874c-.6 6.2.5 12.6 3.2 18.3-4.3-.3-8-3.8-8.7-8-.8-4.1 1.7-8.6 5.5-10.3m-192-344.5l-2.7 10.4c-.2.7-.4 1.4-.9 2-1.6 2.3-5.6.8-6.5-1.8-1-2.6-.1-5.5.9-8.1 1.3-.3 2.7.8 2.7 2.1 2-1.8 4.2-3.3 6.5-4.6m166 275.6c-4.2-5.5-6-12.8-4.8-19.6 6 4.2 8.1 13 4.8 19.6m55.6-13l.3-1 .8-2.8c3.7-.6 6.1 4.5 4.5 7.9s-5.3 5.1-8.8 6.6l3.2-10.7M420.2 633.8c1.1.4 1.1 2 .8 3.2l-3.8 15.3c-3.7-5.2-3.7-13.2.9-17.6.5-.6 1.3-1.1 2.1-.9m262.4-21c-4.6-4.3-7.1-10.6-6.9-16.9 5 3.7 8.3 9.7 8.6 15.9-.6.3-1.1.7-1.7 1m-131.9-535c0-1.8 1.3-4.3 2.8-3.3l5.1 18.6c-4.7-3.7-7.6-9.4-7.9-15.3m-22.2 45.1c.4-3.6-2.8-6.9-2.5-10.5.1-1.7 1-3.3 2.4-4.2 2.7 6.5 3.4 13.9 1.9 20.8-1.2.5-2.4-.9-2.5-2.3 0-1.3.6-2.5.7-3.8m-128.3 12.9c4.1 2.7 6.6 7.7 6.4 12.6-.2 3.1-1.3 6-2.5 8.8-3.4-6.6-4.8-14.1-3.9-21.4m380.9 500.3c1.9 7.3-.8 15.6-6.7 20.4-1-7.3 1.5-15.1 6.7-20.4M852 814.5c-6.7-1.4-12.6-6.1-15.4-12.3 7 .4 13.4 5.6 15.4 12.3M613.3 713c-2.3-5.1-3.7-10.5-4.1-16 4.8 5 8 11.7 8.9 18.6-1.5 1.6-4-.6-4.8-2.6M482.4 490.4c-2.8-6.7-3.5-14.3-2-21.3l3.7 1.6c-1.7 3.1-.1 6.9.9 10.3 1 3.5.8 8.2-2.6 9.4m70.3 545c1.3 1.6.1 4.3-1.8 5-2 .6-4.2-.2-5.7-1.6-3.8-3.3-4.5-8.9-5-14 4.7 2.8 9 6.4 12.5 10.6M170.4 427.5c3.3 1 4 5.3 3.6 8.7a36.21 36.21 0 0 1-3.6 12c-1.5.2-2.6-1.5-2.6-2.9.1-1.5.8-2.8.9-4.3.3-2.5-1-4.9-1.4-7.4-.5-2.5.5-5.8 3.1-6.1m120 366.7c1.1 2.2 3.9 2.8 6.1 4.1 3.6 1.9 5.7 6.3 5 10.3-1.7 1.8-4.5-.6-5.5-2.9-1.1-2.2-3.4-4.9-5.5-3.4-.8-2.3-1.7-4.5-2.6-6.7.8-.5 1.6-.9 2.5-1.4m460.8 64.9c1.3 2.1-1 4.8-3.3 5.8s-5.1 1.4-6.6 3.5c-.6.8-.9 1.8-.9 2.8-1.6-2.3-3.5-4.3-5.8-5.9 5.2-2.8 10.8-4.9 16.6-6.2m-54.4-237c7.3 3.5 10.7 13.3 7.2 20.5-3.1-6.6-5.5-13.5-7.2-20.5m-353.6 392.1c-.4 1.6-3.2 1.1-3.9-.5-.6-1.6-.3-3.5-1-5-.5-1.3-1.6-2.1-2.4-3.2-2.4-2.8-2.9-7.1-1.4-10.5 2 2.5 3.2 5.4 4.4 8.3l4.3 10.9M54 841.6c4.5 1.4 9.4 1.8 14 1.1-1.5 2.5-3.1 5-4.7 7.4-4.4-.4-9 .3-13.1 2.2-.8-3.9.8-8.2 3.8-10.7m-18-86.8c2.7 6.1 4.7 12.6 5.8 19.2-.1.7-.2 1.4-.4 2.1-1.7.1-3.4.1-5.2.1-3.9-6.2-2.1-14.3-.2-21.4m483.8-79.4c3.1-.9 6.6.8 8.4 3.6 1.7 2.7 2.1 6.1 1.8 9.4-.2 2.1-.8 4.4-2.6 5.6-3.9-1.9-1.1-8.3-3.4-11.9-1.5-2.4-5.3-4.1-4.2-6.7M423.9 50c-4.1 0-7.1-3.9-8.6-7.7-1.4-3.7-2.2-7.7-2.1-11.7.9 2.7 3.7 4.7 6.5 4.7l4.2 14.7m21.4 1079.1h-12.2c.3-4.9 7.2-7.8 10.9-4.7.5-2.2 3.3-3.5 5.3-2.4s2.4 4.2.8 5.8c-1.2-.9-2.5-1.8-3.8-2.7-.3 1.4-.6 2.7-1 4m-235.6-643c6.2 1.7 12.1 4.6 17.1 8.7 1 .7 1.4 2 1 3.1-7.7.5-15.5-4.5-18.1-11.8m461.9 379c-5.2-5.4-9-12.1-11-19.3 7.1 3.4 11.7 11.5 11 19.3"/><path d="M456 34.3c.6 6.9 1.2 13.9-.2 20.7-4-7.8-5.6-16.7-4.7-25.4 1-1.1 2.9-.6 3.8.6.9 1.1 1 2.6 1.1 4.1M377.4 172c-1.6.7-3.3-.8-4.1-2.4-3.5-5.9-4.1-13.4-1.5-19.8 2.4 5.7 4.6 11.4 6.4 17.2.6 1.8.9 4.2-.8 5"/><path d="M426.8 51.9c-1.4-1.3-2.4-4.1-.6-4.6 6.1 3 11.7 6.7 16.8 11.1-.6 1.9-3.4 1.6-5.2.8-4-1.9-7.7-4.3-11-7.3m199.9 638.7c1.5 2.5 3 5.3 2.8 8.2-.1 1.2-.5 2.4-1.1 3.4-5.1-6.1-7.8-14-7.6-21.9l5.9 10.3M384.6 416.2c-7.4-2.8-12.6-10.6-12.3-18.5 5.5 5 9.8 11.4 12.3 18.5m20.9 453.7c1.2.9 2.5 1.9 3.1 3.3.5 1.4.1 3.4-1.4 3.9-1.7-2.5-4.7-4.1-7.8-4.1l-6.3-10.9c4.3 2.3 8.4 4.9 12.4 7.8M239.9 476.7c-1.2-2.6-2.3-5.3-3.2-8-1-2.9-1.7-6.3 0-8.9l9 20.9c-2.3 1.3-4.7-1.5-5.8-4m425.9 575.5c-1-.1-2.1-.5-2.6-1.3s-.5-1.8-.4-2.7c.3-5.6.7-11.3 3.3-16.1 4.1 2.2 7.7 6.2 8 10.9.4 4.7-3.6 9.6-8.3 9.2m39.5-281c-1-8.5 2.2-17.3 8.2-23.2 0 8.3-2.9 16.7-8.2 23.2m-6 349.1c2.8-4.4 5.5-8.9 8.2-13.4.9 8-2.7 16.4-9.3 21.1-1.7-2.1-.3-5.3 1.1-7.7m-156.3-4.4c-3.1.4-5.7-3.4-4.3-6.1 1.2-2.4-2.6-4.1-5.3-3.9-2.7.1-6.6-.7-6.1-3.4 4.2-1.5 8.9-1.5 13.1.1.9.3 1.8.8 2.4 1.5 2.6 3.2-1.5 8.1.2 11.8M527.4 63c-2.7-7.2-5.3-15.5-1.7-22.3 2.5 8.2 4.5 16.6 5.9 25-1.5 1.4-3.5-.9-4.2-2.7M364 761c1.4-5.2 3.7-10 7-14.3.9-1.2 2.6-2.4 3.8-1.4-2.7 7.4-5.5 14.7-8.5 21.9-2.5 0-3-3.7-2.3-6.2m257.8-231.8c-.2 2.1.7 4.6-.7 6.2-.4.6-1.2 1-1.9.7-1.2-8.2.8-16.9 5.7-23.8 3 1.1 3 5.6 1.4 8.4s-4.2 5.3-4.5 8.5M85.5 768.7c-6.8 1.9-13.8 3-20.9 3.4-1.4.1-3 .1-4-.9-1.8-1.7-.6-4.7.8-6.8l9.9.6c5 .3 10.2.7 14.2 3.7m228.3 45a19.1 19.1 0 0 1 6.3 7.5c-7.9-.1-14.7-8-13.6-15.8 4.5.3 8.7 2.7 11.3 6.3-1.5.1-3 .8-4 2m-26.4-53.5c-.5-5.6-1.9-11.2-4.2-16.4-1.4-3-2.3-7.8.9-8.7 4.1 5.6 6.4 12.4 6.5 19.3.1 2.5-.8 5.6-3.2 5.8M626.9 889l6 22.9-1.7 1.3a25.44 25.44 0 0 1-7.3-19.9c.1-1.9 1.1-4.4 3-4.3M192.7 994.1l6.1-17.3c4.4 7.8-5.5 17.4-2.8 25.9-1.8.5-3.6-1.2-4-3.1-.5-1.8.1-3.7.7-5.5m144.2-151.6c4-1.3 8.1 1.9 10.2 5.5 2.2 3.6 3.6 7.9 6.7 10.6-1.4.6-3 .8-4.5.5-3.4-6-7.6-11.6-12.4-16.6m88.6-477.9c4 6.9 6.2 14.8 6.3 22.8-8.2-4.2-12.2-15.1-8.8-23.7.5-1 2-.1 2.5.9m-78.7 743c-2.9-7.1-3.8-14.9-2.8-22.4.2-1.4.6-3 2-3.4 3.7 8.9 5.3 18.6 4.6 28.2-1.3 1.2-3.1-.7-3.8-2.4m351-539.6c-.7 3.6-4.7 5.7-8.4 5.8s-7.3-1.4-10.8-2.4c-2.9-.7-5.8-1.2-8.7-1.4 1.1-3 5.1-3.3 8.2-3.1l19.7 1.1M514.2 938.3a36.35 36.35 0 0 0 12 15.4c.9.6 1 2.1.3 2.9-4.7-1.1-9.6-2.4-12.8-5.9-3.3-3.5-3.6-10 .5-12.4m132-173l-4.3-17.7c-.7-2.7-1.4-5.6-1.1-8.4.1-1.7 1.5-3.7 2.9-2.9.6.3.9 1.1 1 1.7a66.29 66.29 0 0 1 1.5 27.3m-378 30.8c-2.3-3.1-2-7.8.6-10.6l-5.3-8.2a3.87 3.87 0 0 0 2.6-2.8c4.2.8 6.7 5.5 6.5 9.7-.2 4.3-2.3 8.2-4.4 11.9M343 624.3c2.7-.6 3.1-4.3 2.3-6.9s-2.2-5.5-1-8c.6-1.3 1.9-2.2 3.4-2.3 2.4 8.3 1.7 17.4-1.9 25.3-2.6-1.7-3.8-5.2-2.8-8.1m194.8 212.8c-7.5 4.9-19.1 1.7-22.9-6.5-.8-1.6.7-3.5 2.5-3.9 1.7-.3 3.5.3 5.1 1 3.3 1.3 6.5 2.7 9.7 4 2.6 1 5.5 2.6 5.6 5.4m116.5-296.8c1.6-.8 2.8-2.5 2.9-4.2 2.3-.5 2.8 3.2 1.9 5.4-2 5.3-5 10.2-8.8 14.5-1-7.3-.7-14.8.9-22 1.6 1.7 2.8 3.9 3.1 6.3m-64.7 207c-1.4 2.1-5.4 1-5.5-1.5-3-7.6-.8-16.9 5.2-22.4.3 7.2-.5 14.4-2.3 21.3 1.1.6 2.1 1.5 2.6 2.6"/><path d="M525.2 164.2c-6.6-6.7-10.1-16.4-9.3-25.8 6.4 6.9 9.9 16.4 9.3 25.8m92.7 162.3c-3.2 2.2-6.8-2.2-10.3-4-2.7-1.5-6.3-1.2-8.8.7-.9-2.1-1.9-4.4-1.3-6.6s3.5-3.9 5.3-2.4l15.1 12.3M348.5 908.1a118.61 118.61 0 0 1 .3 14.6c-1.4.6-3.1-.8-3.5-2.3s-.1-3.2-.4-4.7c-.6-2.9-3-5.1-4.4-7.7s-1-6.8 1.9-7.3c1.7-.4 3.2 1.4 3.2 3.1.1 1.7-.9 3.3-1.9 4.7l2.8 1.4 2-1.8m-12.8 12.7c-.4-1.3-.8-2.6-.7-4 .1-1 .6-2 1.2-2.8 5.4 7.5 8.7 16.4 9.4 25.6-4.3-5.7-7.7-12.1-9.9-18.8"/><path d="M363 574c3-3.2 8.4-4 12.2-1.7 3.9 2.2 5.9 7.2 4.6 11.4-.6 2.2-3 4.4-4.9 3.2L376 575l-13-1m201.9 333.6c5.1 1.4 10.7 3.3 13.3 8 .8 1.4.9 3.7-.7 4.1-6.3-2.9-13.2-4.8-20.2-5.6-2.8-.2-2.9-4.8-.5-6.4 2.3-1.5 5.4-.9 8.1-.1m50.2-237.5c1.3 2.2 2.6 4.8 1.9 7.2-.6 2.5-4.3 4.1-5.8 2-4.3-6.3-8.9-13.6-7.3-21 2.3.2 3.6 2.5 4.1 4.7.4 2.2.4 4.5 1.6 6.4s4.4 2.6 5.5.7M387.2 51.2c-2.2 7.1 3.5 16-1.3 21.6-4.6-9.3-4.1-20.9 1.2-29.8 2.8 1.2 1 5.3.1 8.2m329.3 510.9c2.8 4.2 7.7 6.9 12.8 7 2.1.1 2.9 3 3 5.1l.3 7.9-14-11.5c-1.3-1.1-2.7-2.3-3.3-3.9-.7-1.6-.4-3.8 1.2-4.6m-150.8 15.5l10 9.2c-1-.6-1.5 1.4-1.1 2.5 1.6 3.7 3.1 7.5 4.6 11.2-1.2 1.4-3.3.1-4.4-1.3-5.2-6-8.4-13.7-9.1-21.6m189 100.3c6 6.3 9.7 14.7 10.4 23.3.1 1.8 0 3.9-1.6 4.8-4.5-8.8-7.5-18.3-8.8-28.1m-52.1.8l6 24.4c.3 1.2.5 2.4.1 3.5s-1.8 1.8-2.8 1.2c-.5-.4-.7-1-.9-1.6-2.3-6.8-4.1-13.8-5.2-21-.4-2.6.1-6.4 2.8-6.5M409.1 716c-6.2-1.6-7.7-9.7-7.1-16.1.2-3.2-3.9-4.6-7.1-4.9-.4-2.6 3.4-4.1 5.6-2.8 2.3 1.4 3.1 4.1 3.8 6.7l4.8 17.1m174.7 69l-1.1-15.9c-.4-5.2-.5-11.1 3.1-14.8 4.8 9.4 4.8 21 .2 30.4-.6.5-1.5.6-2.2.3m-37.3 44.2c1.1-4 1.7-8.2 2-12.4 3 5 5.3 10.3 6.8 15.9.7 2.7 1 6.1-1.2 7.8-2.6 1.9-6.3-.1-8.8-2.3-1.6-1.4-3.2-3-4-5-.7-2-.5-4.6 1.2-5.9 1.5-.7 3 .7 4 1.9M40.6 812.3c1.1-2.4 2.5-4.9 4.9-6 3.8-1.7 8.4.7 12.5-.4 1.6-.5 3.1-1.6 4.9-1.9 1.7-.3 3.9.7 3.8 2.5l-20.8 9.8c-1.9.9-4.6 1.6-5.7-.2-.7-1.2-.2-2.6.4-3.8"/><path d="M648.3 817c-.2-1.7 2.5-2.4 3.8-1.2 1.3 1.1 1.4 3 1.5 4.7.4 9.9.4 19.8 0 29.7-2.3-1-2.8-3.9-3-6.4l-2.3-26.8M396.7 552.5l6.2 8c1.3 1.7 2.6 3.4 3.2 5.5 1.1 4.2-1.1 9.7 2.1 12.7-1.8.7-3.8-.9-4.4-2.8-.7-1.8-.6-3.9-1.1-5.7-1.1-3.4-4.1-5.6-6.2-8.4s-2.8-7.5.2-9.3m24.8 554.8c-.1.9-.3 1.9-1 2.5-.8.7-2.1.6-2.8-.2-3-11.4-.8-24 6-33.7.2 10.5-.5 21.1-2.2 31.4M18.8 801.4c2.7-8.6 9.5-15.7 18-18.8.9 6-1.1 12.3-5.4 16.6-.6-1.6-.9-3.4-.9-5.1l-11.7 7.3m346.4-268.1c4.3 1.4 3.4 9.5 7.9 10.6 5.1 1.2 9.4 5.5 10.8 10.6-1.8 1.7-4.6.3-6.5-1.1-3.4-2.4-6.9-4.9-9.4-8.3-2.5-3.3-4-7.7-2.8-11.8m247.6 210.6c-8.1-5-12-15.9-8.7-24.8a11.59 11.59 0 0 1 7.8 6.5c-1.6-.4-3.2-.9-4.8-1.4.8 6.8 2.7 13.5 5.7 19.7M373 533.3c.8 2 1.3 4.7-.5 5.7-5.8-8.1-10.2-17.1-13.2-26.6 1.3-1 3 .5 3.9 1.9 3.7 6.1 6.9 12.5 9.8 19m-55.8-16.1c.5-.4 1-.7 1.6-.7 2.6 0 2.7 3.7 3.6 6 1.2 3 4.7 4.3 7 6.5 3.3 3.1 4.5 8.2 2.7 12.4-4.6-3.8-8.9-8-12.8-12.5-2.9-3.3-5.5-8.9-2.1-11.7m375.4 92.9c-.5 7.4-1.7 14.7-3.5 21.8-.6 2-1.9 4.5-3.9 4.1.2-11.7 1.1-23.3 2.9-34.9 3.7.2 4.8 5.3 4.5 9m56.7 259.1c.9.6 1.9 1.8 1.2 2.7-1.6.2-2.2 2.6-1 3.6 6.5-2.7 14.6 2.3 16 9.2a65.14 65.14 0 0 1-25.3-11l9.1-4.5m-380-.8c-7-4.7-12.2-11.9-14.6-20a23.51 23.51 0 0 1-.9-5.3c-.1-.9 0-2 .7-2.6 1.4-.9 3.1.8 3.9 2.3l10 19.1c1.1 2 2.1 4.5.9 6.5m-32.5-233c1.7-.1 2.4-2.4 1.8-4-.5-1.7-1.9-2.9-2.6-4.5-1.8-3.9 1.6-9.2 5.9-9.2 1 5.7.5 11.7-1.5 17.1 3.9.2 6.8 4.8 5.3 8.4-3.8-1.4-7-4.3-8.9-7.8M120.5 787.1c-7.1 7-17.9 10-27.6 7.8-3.2-.8-6.2-2-9.2-3.3.4-2.5 3.5-3.4 6-3.7 10.2-1.2 20.5-1.5 30.8-.8m49-139.2c.1 2.5-1.9 4.9-4.3 5.2l-10.6-16.2c-1.8-2.7-3.6-6.1-2.2-9.1 2.2 1.5 4 3.8 4.9 6.4 1.2-.9 2.8.2 3.8 1.3 2.8 3 4.8 6.7 5.8 10.6-.6 1.4 1.6 2.9 2.6 1.8m208.6-143.6l12.1 26c.7 1.4 1.1 3.7-.4 4.3-6.5-7.2-11.2-15.9-13.7-25.3-.5-2.1-.1-5.2 2-5m162.5 504.9c3.9 1.8 8.4 5.2 6.8 9.1-1.2 2.9-6 3-7.4.3 1.3-1.2 2.6-2.3 3.9-3.4-7.8-1.8-17.1-5.1-18.6-13l15.3 7M319.5 868.3l6.1 17.6c.6 1.5 1.1 3.2.7 4.8-.3 1.6-2.1 3-3.6 2.4-2.4-10.5-5.6-20.8-9.6-30.8 3.2-.8 5.4 2.9 6.4 6M420.3 952c1.3.2 1.5 2.1.8 3.2-1.4 2.3-5.2 2-7.1.1-2-1.9-2.6-4.8-3.2-7.5l-1.4-7.2c5.1-2.7 11-3.6 16.7-2.6-4.6 4.4-8.1 9.8-10.2 15.7 1.6.3 2.8-2 4.4-1.7m94.4-91.5c-.9-2.5-1.5-5.3-.3-7.5.3-.7 1.2-1.2 1.6-.6 6.5 8.5 11.9 17.9 16 27.9-7.9-4.2-14.2-11.4-17.3-19.8m-91.6-471.8l-2.9 13.3c-4.1-5.4-4.5-13.4-1-19.2 3.4 2.5 6.8 5.1 8.8 8.7 2.1 3.6 2.5 8.5-.1 11.7-3-4.2-3.9-9.5-4.8-14.5m-110.8 730c1.7-1.5 4.4.5 5.6 2.5 5.9 9 8.7 20.1 7.8 30.9-2.5.9-4.4-2.2-5.3-4.7-3.2-9.4-5.9-19-8.1-28.7m247.5-86.4c2.7.7 5.4 1.6 7.9 2.8-1.2-4.4-3.4-8.5-6.4-11.9-1-1.2.7-3.1 2.3-2.8s2.5 1.8 3.4 3.2l5.5 9.3c1 1.7 2 3.7 1.6 5.6-.7 3.5-5.6 4.5-8.6 2.6s-4.4-5.4-5.7-8.8m140.1-238.4c-2.1-2.6-.7-6.4-.4-9.7.3-4.6-1.8-9-2.5-13.6-.6-4.6 1.1-10.3 5.6-11.3.2 1.8-.6 3.6-1 5.4-1.1 5 .9 10.1 2 15.2 1 5 .6 11.2-3.7 14m-29.4 20.3l.5-5.8c2.7 4.9 5.4 10.3 4.1 15.7-.7 2.8 1.4 5.4 2.7 8 1.2 2.6.7 6.9-2.2 7-1.8-8.9-6.3-17.2-12.8-23.6 2.3-1.5 5.1-2 7.7-1.3m-230 240.2l11.6 7.9c4 2.7 8.4 6.5 7.5 11.2-9.5-5.8-18.6-12.2-27.2-19.2 1.1-2.9 5.5-1.7 8.1.1m-186.2 10.5c.6-5.2 4.6-9.9 9.7-11.2 2.7-.8 3.7-4 4.7-6.6.9-2.7 3.2-5.7 5.9-4.8-3.6 9.8-9.9 18.7-18 25.3-1.2 1-2.4-1.2-2.3-2.7"/><path d="M315.3 841.3c6 2.6 11.4 6.5 15.7 11.5 3.6 4.1 4.8 10.1 3.2 15.3-6-4.9-5.2-15.7-12-19.4-1.8-.9-3.8-1.2-5.5-2.3-1.6-1.1-2.7-3.6-1.4-5.1m-3.4-222.9l1.7 9.6c.7 3.9 1.4 7.9.3 11.7-6.4-11.1-10.2-23.6-11.1-36.4 5.9 1.8 7.9 9 9.1 15.1m39.4 99.9c-1.7-4.3-2.1-9.1-1-13.6-.6 2.1 3.1 2.8 4.3 1s.6-4.1.2-6.2c-1.3-5.6-1.2-11.5.2-17.1 6.8 11 5.2 26.5-3.7 35.9m277.1 56.5c-2.4-.5-3.2-3.5-4-5.9-.7-2.4-3.1-5-5.3-3.7.7-3.8-3.2-6.5-6.2-8.8-3-2.4-5.3-7.4-2.2-9.5 7.4 6.4 13.6 14.1 18.3 22.7 1 1.8 1.4 4.8-.6 5.2"/><path d="M543.7 706.1c1 6 .8 12.1-.4 18.1-2.3-4.2-4.8-8.7-4.6-13.5.1-4.8 3.9-9.8 8.7-9.4-.6 1.2-.7 2.5-.2 3.7 3.8-1.3 8.6 1.2 9.7 5.2-4.5-1.1-8.9-2.5-13.2-4.1m1.8-602.5c.4-3.5 2-7.8 5.4-7.7-2.8 8.6-5.9 17.1-9.3 25.5-.9 2.4-2.8 5.2-5.2 4.6l3.7-22c.3-2.2.7-4.4 1.9-6.3 1.2 1.9 2.3 3.9 3.5 5.9M416.6 834l-3.2 5c-2.3-3.9-2.2-9.2.3-13l10.6 9.5 2.6-7.8c1.7-.6 2.4 2.3 1.9 4.1l-3.3 14c-4.1-2.8-7.3-7-8.9-11.8M241.7 422.8c1.7-1.4 4-2 6.2-1.4-1.7 3.2 1.2 6.9 3.6 9.6 4.7 5.2 8.4 11.2 11 17.7-2.2.8-4.4-1.3-5.8-3.1-5.6-7.2-10.7-14.8-15-22.8m282.5 298.5c.4-1.4 1.9-3.1 2.9-2a13.47 13.47 0 0 0 1.4 5.9l4.4-8.2c.5-.9 1.2-2 2.3-2.1 2.2-.1 2.3 3.2 1.5 5.2-1.5 4.1-4.3 8.9-8.7 8.4.2 5.1-2.6 10.2-7 12.7.2-6.7 1.3-13.4 3.2-19.9m-109 429.2c-1.1 2.1-4.4 1.6-5.8-.2-1.4-1.9-1.5-4.3-1.7-6.6-.4-5.6-1.7-11.1-1.6-16.6.2-5.6 2-11.5 6.6-14.7 1.2 2.2.4 5-.2 7.5-2.4 10.2-1.4 21.1 2.7 30.6m245.1-371.2c-1.7-.9-3.2-2-4.6-3.2-.2 7.7-1.9 15.3-4.9 22.3-6.1-10.4 4.5-23.9.9-35.4 2.4.6 4 3.6 3 5.9 5-.5 8.7 6.5 5.6 10.4M358.4 401.4c.4-.9 1.1-1.8 2-1.8 1.1 0 1.8 1 2.3 1.9 5.1 8.9 12.4 16.6 21 22.2-2.1 2.8-6.5 1-9.3-1.1-3.8-2.9-7.4-6-10.8-9.3-3.4-3.2-6.8-7.6-5.2-11.9"/><path d="M701.2 1062.1l-3.4 8.8c-3.4-4-3.3-10-1.7-15.1 1.6-5 4.5-9.5 6.3-14.5 2.7 1.2 5.4 2.6 7 5.1 1.7 2.4 1.7 6.1-.5 7.9-4.3 3.5-.6 12.6-5.7 14.7-.6-2.3-1.3-4.6-2-6.9M376 88.5L374.8 68c-.2-3.6-.2-7.8 2.5-10.2a199.57 199.57 0 0 1 4.2 47.5c-4.5-4.1-5.1-10.8-5.5-16.8m58.2 848.8c-1.4.7-3.1.4-4.5-.3-2.8-1.3-4.9-3.9-6.9-6.3-3-3.8-6.1-7.7-8.1-12.2-1.9-4.4-2.6-9.7-.7-14.2 4.8 8.4 10.9 16.1 17.9 22.8 1.5 1.4 3 2.8 3.8 4.8.7 1.9.3 4.4-1.5 5.4m-128.5-362c.1-1.8.2-3.7 1.1-5.3.9-1.5 2.9-2.6 4.6-1.9-1 10.1-.8 20.3.4 30.3.1.8.2 1.5.5 2.1 1 1.7 3.9 1.6 4.8-.2.3 2.2.5 4.5-.5 6.3-1.1 1.9-4.2 2.6-5.4.8-6.1-9.2-5.9-21.1-5.5-32.1"/><path d="M678 735.5l8.1 25.1c.4 1.1.7 2.3.5 3.4-.3 1.9-2.1 3.1-3.7 4.1-3.2-13.1-7.6-26-13.3-38.3 1.5-1.5 4-1 5.5.3 1.5 1.4 2.2 3.5 2.9 5.4M411.8 582.3l4.1-3.8c-2.3-.3-3.8-2.4-4.4-4.5-.6-2.2-.4-4.5-.5-6.7-.3-5.3-2.2-10.4-5.5-14.6 2.5-1.2 5.5.1 7.1 2.3 1.7 2.1 2.3 4.8 2.8 7.4l5.6 25.7c-3.3-1.6-6.4-3.5-9.2-5.8m234.6 264c-4.5-1.3-7.7-5.9-7.4-10.6 2-.4 3-2.9 2.7-4.9s-1.5-3.8-2.4-5.7c-2.9-6-2-13.7 2.2-19 3.1 3.5-.5 9 .3 13.5.5 2.7 2.5 4.8 3.8 7.2 1.2 2.3 1.6 5.7-.5 7.4-3.6 2.6 4 8.6 1.3 12.1M438 1098.2c.7 3-.6 6.4-3.1 8.2-4-12.9-6.4-26.3-7.3-39.7 1.4-2.2 5.1-.7 5.9 1.8.9 2.4.2 5 .5 7.6.4 4 3.3 7.4 5.5 10.8 2.2 3.5 3.9 8 2 11.6-1.2.5-2.5.3-3.5-.3m223 50.8c-.2 1-.6 2.2-1.5 2.8-.7.5-1.7.6-2.5.3.4-7.3-4.7-13.6-8.7-19.7-3.9-6.2-6.6-14.8-1.9-20.4 1.9 6.5 6.1 12 9.5 17.8 3.5 5.8 6.3 12.5 5.1 19.2m-53.6-780.8c3.2-7.2 6.7-14.3 10.3-21.2 3.5.9 3.1 6 1.8 9.4-1.6 4-3.5 7.9-5.6 11.7-1.7 2.9-3.7 5.9-6.8 7.2-3.1 1.2-7.5-.3-7.9-3.7l4.8-10.1c2.1 1.5 3.4 4.1 3.4 6.7M524.1 912c-.4-3.9 4.6-7.1 8.1-5.2 1.3.8 2.6-1.1 3.1-2.6 10.2 1.3 19.4 8.8 22.7 18.6.7 1.9 0 5-1.9 4.4-6.2-11-19.6-17.3-32-15.2m-239.9 207.4l-11.8-8.1c-3.9-2.7-7.9-5.5-10.9-9.3-2.9-3.8-4.7-8.8-3.6-13.4 2.9-1.1 5.9 1.3 7.3 4s1.9 5.9 3.7 8.3c2.5 3.6 7.1 5.1 10.8 7.5s6.8 7.3 4.5 11m408.6-415.5c-1.2.6-2.6-.3-3.4-1.4-2.7-3.6-1.8-8.7-.2-12.9 1.5-4.2 3.8-8.3 3.5-12.8-.2-5.4-3.9-10.9-1.7-15.7 6 1.8 9.6 9.2 7.4 15-3.4 8.9-5.3 18.3-5.6 27.8m-9.7 383.3c-2.3-4.8-1.5-10.9 1.9-15-7.5-1.2-15.1-1.9-22.7-2.1-.6-2.8 2.2-5.3 5.1-5.6 2.8-.4 5.6.6 8.4.9 4.7.5 9.5-.9 13.2-3.9 1.3-1.1 3.5.3 4 2 .4 1.7-.4 3.4-1.2 5l-8.7 18.7M514.2 897.5c-.2 8.7 1.1 17.4 3.6 25.7 1.8 6.2 5.1 12.9 11.3 15-1.5 1.6-4.2 2.1-6.3 1.1-2-1-3.2-3.4-2.8-5.7-1.1-.5-2.4-.7-3.7-.4-6.8-10.7-9.9-25.7-2.1-35.7M300.7 687.9c-7-6.8-12-15.7-14-25.3-1-.6-2.3-.7-3.4-.4-1.5-3.2-2.3-6.8-2.2-10.4 7.4 5.4 11.8 13.9 16 22l6.6 13.2-3 .9m586.2-2.5c-1.9-7-3.3-15.9 2.6-20.2.2 15.4 3.6 30.8 9.8 45-5-1-7.2-6.7-8.6-11.6l-3.8-13.2m-240 46.2l3.9-1.9c-6.6-6.5-8-17.7-3.2-25.6l16.6 37.8c-3.9-2.8-9.3-3.5-13.7-1.7l-3.6-8.6m-294.3 420.6c-.6 0-1.1 0-1.6-.3-1.3-.9-.1-3 .8-4.3 3.6-5.6.3-12.9-3.3-18.5s-7.7-12.2-5.2-18.4c.8-.7 1.9 0 2.7.6 11.3 9.8 15.9 26.6 11.3 40.8-1.6 0-3.2 0-4.7.1M215 895.8c.2 4.6-3.9 9-8.6 9.1-4.6.1-9-4.1-9-8.7-.1-3 1.4-6.2 0-8.9-2.4-4.9-12.1-4.4-11.9-9.9 4.3-1.6 9.5-.8 13.1 2.2 5.8 4.7 6.5 13.2 6.7 20.7 3-2 6.3-3.5 9.7-4.5m366.5 240.3c2.7 1.5 5.2 3.4 7.4 5.6-2.6 1.8-6.2 1.9-8.9.2-2.7-1.6-4.3-4.9-3.9-8 .4-3-3.1-4.8-5.5-6.8-5.9-4.8-5.6-13.7-4.9-21.2 4.1 1.2 5 6.6 5.1 10.9 1.9-.4 3.6 1.3 4.4 3.1.8 1.7 1.2 3.8 2.4 5.3 1.1 1.6 3.8 2.3 5 .8 2.6 2.8 2 7.9-1.1 10.1M147.6 760c-6.2-1-9.9-7.6-15.8-9.6-2.2-.8-4.6-.9-6.7-1.8-3.9-1.6-6.2-5.8-7.2-9.9-1.1-4.1-1.2-8.4-2.3-12.5 7.6 0 10 12.2 17.6 13.4 4.3.7 7.9 4 10.1 7.8 2.3 3.9 3.3 8.2 4.3 12.6m423.8-301.8c3.1 5.8 2.7 13.5-1.1 18.9-2.4 3.4-.3 8 .5 12.1 1.2 6.7-1.9 14-7.6 17.7-2.1-5.5 5.2-11.8 2.2-16.8-6.1-10.2-3.4-24.7 6-31.9m-394.8 3c-1.9 5.8-.1 12.1 1.4 18 2.8 11.3 4.4 22.9 4.7 34.6-6.6-6.4-9-16-9.9-25.1-.9-9.2-.6-18.5-3.4-27.3l7.2-.2m176.1 58.4c-3.7-7.7-6.7-15.8-9-24.1-1.1-3.9-1.2-9.4 2.7-10.6l16.1 46.1c-4.8-1.8-7.6-6.7-9.8-11.4m377.1-84c-1 6 3.3 12.5 9.3 13.9-1 2.9-1.6 5.9-2 8.9.5.7-.6 1.8-1.5 1.5-.9-.2-1.4-1.1-1.8-2L720 430.3c2.1-.4 2.3-3.5 1.3-5.4s-2.7-3.6-2.7-5.7c0-2.2 3.5-3.7 4.1-1.7 1.6 5.2 2.3 10.7 2.2 16.1 1.6.7 3.3 1.3 4.9 2M382.3 747.2c-4.4-7.9-6.9-16.8-7.4-25.9-.6-10 1.4-20.1.7-30.1 2.8.7 4.6 3.4 5.2 6.2.6 2.9.2 5.8 0 8.6-.7 8.1.2 16.2 2.6 23.8.9 3 2 6 2.2 9.1s-.8 6.5-3.3 8.3m294.4 28.4c-.1-1.7.9-4.1 2.4-3.3 1.8 10.4 3.2 20.8 4.3 31.3l-5.9 5.5-9.2-28.6c3.1-.6 5.6 2.7 6.4 5.8s.9 6.6 3.1 8.9l-1.1-19.6m-247.4 1.6c1.9 6.2.4 13-1 19.4-1.1.7-2.4-.7-3-1.9-4.3-8.7-8.5-17.5-12.4-26.4-1.7-3.8-3.2-8.5-.8-11.8 4.3 7.2 8.4 14.5 12.3 21.9 2-2.1 4-4.3 5.9-6.4 1.8 1.3 1.1 4.6-1 5.2m353.2-58.7c-1.5-3.4-.8-7.5 1.5-10.3 2.4-2.7 6.4-3.9 9.9-3-5 3.5-6.6 10.1-7.5 16.2-1.2 7.4-2.1 15-2.7 22.6-5.6-10.5-11.5-22.2-9-33.9l7.8 8.4M401.8 165.6c1.6 5.3 2.2 12.5-2.7 14.9-.9-18.4-13.7-35-13.1-53.4 2-.2 3.3 2 4 3.9 4.5 11.3 8.4 22.9 11.8 34.6m295.8 361.6c0-8 2.7-15.8 5.4-23.4 1.2-3.5 2.6-7.2 5.8-9.1 4.8-2.8 1.3-11.6 5.8-14.8 2.3 2.8 2.3 7 1.1 10.4-1.2 3.5-3.4 6.5-5.4 9.6-5.7 9.2-9.1 19.9-9.7 30.7-1.6 1-3-1.5-3-3.4"/><path d="M825.4 902.1c3.7 6.8 6.5 14.1 8.2 21.7-9-5.6-17.4-12.1-25.1-19.3-1.7-1.6-3.5-3.6-3.3-6 .3-2.3 4.1-3.7 4.9-1.5 2.9 7.7 9.7 13.9 17.7 16-2.3-3.1-3.2-7.2-2.4-10.9M331.7 488.5c2.2 5.5 4 11.7 2 17.3-1.9 5.1-2.2 10.8-.9 16.1-4.1-1-6.6-6-5-9.8 3-7 .4-14.9-2.6-21.9-2.9-6.9-6.2-14.4-4.6-21.7 4.5 6.2 8.2 12.9 11.1 20M570.3 66.4l-10.8-19.8 3.9-.5c7.6 14.3 14.3 29.1 19.9 44.3-1.2.7-2.4 1.4-3.6 2l-12.9-24.8 3.5-1.2M164.9 740.8c-12-7.8-16.5-24.7-29.6-30.4-3.7-1.7-3.7-6.8-2.9-10.7 7.7 4.7 15.3 10 21.4 16.7 6.1 6.8 10.5 15.3 11.1 24.4M329.1 913c1.1 2.1 2.1 4.4 3 6.7l8.3 20c1.2 2.6 4.2 5.8 6.3 3.8 1.9.3 1.5 3.6-.3 4.2-1.9.5-3.8-.8-5-2.3s-2.2-3.3-3.9-4.3c2.1 5.2 1.6 11.3-1.2 16.2-2.1-.1-2.4-3.1-2.4-5.2.2-6.7-2.4-13.1-4.4-19.5s-3.3-13.6-.4-19.6M136.6 811c11.4 8.1 23.3 16.8 29.7 29.2l-22.4-11.1c-4.4-2.2-9.3-5.1-9.9-9.9l9.6 4.9c0-2.8-2.8-4.5-5-6.2s-4-5-2-6.9m573.8 261c.1 1.5-.6 2.9-1.3 4.1l-4 7.1c-2.1 3.9-5.6 6.8-9.2 9.3-6.8 4.6-14.1 8.3-21.9 10.9-2.1-1.1-.3-4.3 1.7-5.7 5.4-3.6 11.3-6.5 17.4-8.5-1.1-1.5-2.8-2.5-4.6-2.8l21.9-14.4M285.7 622.8c-4.2-8.5-5.1-18.6-2.6-27.7 5 3.2 2.8 10.8 4.1 16.6.5 2.8 2 5.3 2.4 8.2.4 2.8-1 6.2-3.8 6.7 4.1 6.8 5.7 15.1 4.3 23-2.9-4.4-4.4-9.8-4.2-15-1.4.4-2.8.9-4.3 1.4-.9-4.7.7-9.9 4.1-13.2m108.2 178.8c-6.6-5.8-10.1-14.4-12-22.9-1.9-8.6-2.4-17.4-4.2-26-.5-2.4-1.2-4.8-1.8-7.2 14.4 12.6 7.7 38.2 20.2 52.8-.7 1.1-1.5 2.2-2.2 3.3m-125.5 266.5l14.6 29.8c-5.7-1.7-8.5-8.3-13.7-11-3.7-1.9-8-1.7-12.1-2.3-4-.6-8.5-2.8-9.3-6.8 7.5 0 14.9 1.8 21.5 5.2 1.4-1.4-.7-3.4-2-4.9-2.6-2.7-2.1-7.8 1-10m73.7-350c4.5 1.4 6.7 6.6 7.5 11.3 1.5 8.6.8 17.5-2.2 25.7-4.3.2-2.2-9.4-6.5-9.8-2.7-.2-4.8-2.5-5.5-5.1-.7-2.5-.4-5.2.3-7.8 1.2-5.1 3.4-10 6.4-14.3m-2.2 22.6c-.4 1.7 2.3 2.6 3.6 1.6 1.3-1.1 1.6-3 1.7-4.7.4-4 .5-8.6-2.4-11.5l-2.9 14.6M442 5.2c-4.8-.7-10.2 1.2-14.3-1.4 6-3.4 13.6-3.8 20-1.1 2.8 1.1 5.5 2.9 8.5 3.6 4.2.9 8.5-.5 12.7-1.3 8.3-1.7 17.1-1.4 25.3 1-4.3 1.5-9 1.8-13.5 2.1l-17.4 1.2c-3.6.3-7.2.5-10.7-.4-3.6-1-6.9-3.2-10.6-3.7M75.9 915.6l2.5 4.5c10.5-10 18.7-22.4 23.7-35.9 3.6 1.8 2.7 7.1 1.3 10.8-5 13.1-10.9 27.3-23.3 33.7-3-3.6-4.6-8.4-4.2-13.1m463.9 214.1c4.2.5 8.4 1.8 12.1 3.9-.6 3.2-2.2 6.3-4.5 8.6a6.79 6.79 0 0 1-2.8-6.3c-2.3 0-3.3 3.3-2.2 5.3s3.3 3.2 5 4.7 3.1 4 2 6c-7.3-.4-11.1-8.7-13.3-15.6l-5.5-17.5c-.9-2.7-1.4-6.3 1.1-7.6l9.7 13.8c-1 1.4-1.6 3-1.6 4.7M794 882c-2.4 3.3-7.6 4.2-11 1.8a23.51 23.51 0 0 0 3.2 8.6c-1.3 1.5-3.7.2-5.1-1.3-1.3-1.5-3.1-3.3-4.9-2.6-1.9.9-4.2-.4-5.4-2.1-1.1-1.7-1.5-3.8-2.2-5.8-2.2-6.4-7.4-11.7-13.7-13.9 1-3 4.9-4.7 7.8-3.3 1.1.5 1.9 1.3 2.8 2.1l12.9 12c-.8.7-1.9.9-2.9.7-1.1.2-1.1 1.9-.3 2.6s2 .8 3 .8l15.8.4M106.4 556.1c-2.6-5.9 3.1-11.7 6.8-17 7.9-11.5 6.9-27.8 16.1-38.3 2.1 3.8.8 8.4-.5 12.6-5 15.4-10.9 31.2-22.4 42.7M407 833.8c.6 6.6 2.4 13.2 5.4 19.1-2.5.5-4.9-1.2-6.4-3.2-1.6-2-2.7-4.3-4.6-6-2.5-2.3-6.1-3-8.7-5.2-2.7-2.2-3.5-7.2-.4-8.5 3.4-1.4 4.3-5.8 4.1-9.5-.2-3.6-1.1-7.5.6-10.8.7-1.5 2.6.8 2.6 2.5l-.2 10.5c0 4.4-.8 9.8-4.8 11.4 3.5 2 6.9 4.3 10 6.9-.6-2.6.4-5.5 2.4-7.2m-76.1-713.2c-3.1 6.7-7.1 13.1-11.9 18.7.9-9.2 3.1-18.4 6.5-27.1 3.3-8.6 4.9-17.9 4.7-27.2-.1-1.6 2.4-2.1 3.5-1 1.2 1.1 1.3 2.9 1.3 4.5.1 11.2-.4 24.1-9 31.4 1.6 1.5 4.8-.6 3.9-2.7 1.4-.3 1.6 2.1 1 3.4M585.5 178c.3-2 3.4-1.7 5-.5 10.9 8 6.8 26.1 15.1 36.8 2 2.7 4.8 4.8 7.3 7 1.9 1.5 3.6 4.8 1.4 5.9L598 211.9c-3.5-3.3-7.4-8.1-5.3-12.5 1.3-2.8-2.9-5.5-2.7-8.6.5-4.7-1.2-9.4-4.5-12.8m-30.7 688c-.7-1.7-.8-3.9.5-5.2 1.2-1.3 4.1-.8 4.1 1.1.2 5.4 5.8 8.8 10.4 11.8 11 7 20.1 17 26 28.7-3.3 1.6-7.3-.1-9.9-2.7-2.5-2.6-4-6-5.9-9.1-2.7-4.6-6.5-8.6-10.8-11.7-5.4-3.8-12.2-6.7-14.4-12.9m203.8-347.6c-.4-11.2 2.1-22.4 4.6-33.4 2.3-10.2-1.7-21.6 2.7-31.1 4.7 7.2 5.5 16.2 4.5 24.7-1 8.4-3.6 16.6-5 25-1.2 7.8-1.5 15.8-1.7 23.7-3.7-.6-4.9-5.2-5.1-8.9M143 872.1l-4.6 12.4c-1.5 4-3.1 8.2-6.2 11.3-1.6 1.6-3.5 2.9-5.5 4.1l-25.2 16.4c.2-4.8 3.2-9.1 6.8-12.3s7.8-5.6 11.4-8.8c8.3-7.3 13.2-18.7 23.3-23.1"/><path d="M369.6 683.6c2.3 4.7 1.4 10.8-2.3 14.5-.8-9.8-9.2-17.1-16.5-23.8-7.4-6.6-14.9-15.4-13.1-25.2 6.9 8.3 13 17.2 18.2 26.7 2.1-1.2 4-2.8 5.6-4.7.2 2.7.5 5.6 1.7 8 1.2 2.5 3.7 4.6 6.4 4.5m225.8 120.3c4.8 7.7 2.6 18.8-4.7 24.1 1-3 2-6.1 1.9-9.3s-1.6-6.6-4.5-8.1c-5.9-3.1-5.2-11.6-7.4-18-2.1-6-7.6-10.7-13.9-11.8.5-1.7 2.6-2.5 4.4-2.2 1.7.3 3.3 1.4 4.7 2.5 4.5 3.4 9.2 7.1 11.1 12.3s1.2 11.7 5.3 15.4l3.1-4.9m-22.2 145.3c6.6 2.5 4 15.6 10.9 16.9-1.2-7.2-2-14.4-2.3-21.7 0-1.2 0-2.4.6-3.4s2-1.6 2.9-.9c3.7 18.3 4.6 37.1 2.7 55.7L576.2 971c-3.3-6.9-6.5-15-3-21.8M371.4 577.8l1.8 7.5c1.4 5.3 2.7 11 1.1 16.4-5.3 17.9 5.7 37.6.6 55.6-3.2-1.8-5-5.5-5.5-9.1-.5-3.7 0-7.4.2-11.1.4-7.6-.7-15.2-1.1-22.9-.7-12.1.3-24.4 2.9-36.4m218.5 120.7c-1.1-1.7-1.3-3.8-1.9-5.7-2.4-7.5-11.7-12.4-11.2-20.3 1.4-.6 3.2.6 3.2 2.1 3.1-.4 6.2-.2 9.2.7 1.9-2 1.7-5.2 1.6-8s.6-6.2 3.2-7.1c2 5.6 1.9 11.9-.3 17.5-2.6 6.6.9 14 .1 21.1 6.7 1.9 12.3 6.9 15.1 13.3l-15.4-10.4c-1.3-.9-2.7-1.8-3.6-3.2M318.2 227.9l29.1-14.6c1.1-2.6 2.5-5.4 5.1-6.4 2 4-2.1 8.2-5.7 10.9-8 5.7-16.3 11.6-26 13.2-2.1.4-1.7 3.9.2 4.7 1.9.9 4.1.1 6.1-.6s4.5-1.1 6 .4c-1.5.7-2.9 1.5-4.3 2.3 1.1 1.4-.1 3.8-1.9 4.4-1.7.6-3.7 0-5.4-.8-2.3-1-4.7-2.3-6.1-4.3-1.5-2.1-1.8-5.2-.1-7.1.8-1 1.9-1.5 3-2.1m-178 727.3c5.7-9.8 11.5-19.7 19.7-27.5 7.9-7.6 17.7-12.9 27.7-17.5.6 2.6-1.1 5.3-3.3 6.8-2.2 1.6-4.8 2.4-7.3 3.5-15.5 7-21.8 26.6-36.8 34.7m452.7 30.4l3.7 1.7c2.2-4.8 8.7-5 13.9-4.7 5.2.4 11.9-.5 13.3-5.5 1.7.6 3.4 1.1 5.1 1.7-4.8.9-8.1 6.2-7 10.8-1.2.5-2.4 1.1-3.5 1.6-.4-1.9-3.3-2.8-4.6-1.4 4.3 1.3 7.4 6.1 6.8 10.6-5-4-10.2-7.8-15.6-11.3-1.8-1.2-5.4-1.5-5.1.7 4.6.7 8.6 4.3 9.9 8.7l-14.6-5.2c0 1.5-.8 3-2 3.9-.4-3.9-.5-7.8-.3-11.6"/><path d="M312.4 1028.2c8.6 9 3.4 26.6 13.5 33.9 9.7 6.9 15.3 19.3 14 31.2-1.2-6.7-7.7-10.9-12.8-15.6-8.2-7.6-13.5-18.2-14.6-29.3-.3-2.4-.3-4.8-.9-7.1-.6-2.4-1.7-4.6-2-7-.3-2.3.5-5.2 2.8-6.1m88.9-356.3c.7 2.1 2.2 3.8 3.6 5.5l10.1 12.2c-7.6-.7-14.9-4.8-19.4-11.1-4.5-6.2-6.1-14.5-4.3-21.9.6-2.5 2.6-5.5 5-4.6.9.3 1.6 1.1 2.5 1.5 1 .4 2.4-.2 2.1-1.2-1.2-1.2-2.5-2.4-3.7-3.5-.5-.5-1-1-1.1-1.6-.3-1.7 2.3-2.4 3.9-1.8 1.6.5 3.3 1.7 4.9 1l-3.5 15.5c-.6 3.3-1.3 6.8-.1 10m-5.9-8.2a5.34 5.34 0 0 0 1.8 4.6c1.3-4.3 1-9.1-.8-13.3l-1.8 8.6m499.7 140.6c-1.2-4.9-2.2-10.4.6-14.5a103.18 103.18 0 0 0 6 15.1l-6.1 27.1c-3.4-1.1-3.5-6-2.3-9.4 1.2-3.3 3-7.1 1.3-10.3-3.6-6.8-10-12.2-17.4-14.5-2.4-.7-4.9-1.2-7-2.6-2-1.4-3.5-4.2-2.5-6.5 1.2-.5 2.3-1 3.4-1.5 3.2 5 10.2 5.2 15.5 7.7 3.9 1.9 7 5.4 8.5 9.4M372 1040.3c1.4-1.2 3.8-.1 4.5 1.6.8 1.7.4 3.7 0 5.5l-6.1 26.6c-.5 2.4-1 5 .3 7.1 2.1 3.4.4 7.7-1.3 11.3l-9.1 19.7c-2.1-6.8-.6-14.5 3.7-20.1 1-1.4 2.2-2.7 2.6-4.3 1.1-4.5-4.2-7.7-6.4-11.7-3.2-5.7.2-12.8 4-18.1 3.9-5.3 8.5-11 7.8-17.6m164.4-451.1c-1.7 6.4-2.8 13-3.3 19.6.9.3 1.7-.8 2.2-1.7 4.1-8 6.1-17 5.9-25.9-.1-2.2-.2-4.5.8-6.5 1-1.9 3.7-3.1 5.4-1.7 1.4 1.2 1.3 3.3 1.1 5.1-2.5 17.6-8.4 34.8-17.2 50.3l-.9-24.4c-.2-5.7.6-13 6-14.8M340 1024.3c-.6 2-2.9 3.4-4.9 2.8-.4-2.9-3.6-5.2-6.5-4.6l11.6 19.3c1.7 2.8 3.4 6.5 1.4 9.1-11.8-9.8-22.3-22.8-23.8-38.1-.7-7.4 2.2-16.5 9.5-17.8 1 1.9 2.1 4 1.7 6.2-.4 2.1-3 3.9-4.8 2.7-1 4.4 1.9 8.8 5.4 11.8 3.4 2.9 7.6 5.1 10.4 8.6M81.3 871.8l1 6.3c5.8-9.4 11.8-18.7 17.9-28 1.7 8.7-1.2 17.9-6.6 24.8-5.4 7-13 12-21.1 15.7-5.1 2.3-9.2 6.7-11.3 11.9-2.8-.3-2.4-4.6-1-7.1 3.3-6.4 6.8-12.7 10.6-18.8.6 1.6 1.5 3.2 2.5 4.5 2.2-3.4 4.9-6.5 8-9.3M499.2 45c9.3 4.6 16.4 12.6 23.3 20.4l21.2 24.1c.9 1.1 1.8 2.9.6 3.7-9.2-4.4-17.3-11.1-23.4-19.3-8.4-11.4-18.7-21.3-30.5-29.2 2.4-2.1 6-1.1 8.8.3m267.2 858.6c3.6 3.8 6.9 8 8.5 13-8.7-5-17.1-10.5-25.1-16.5-6.8-5.1-13.4-10.7-17.9-17.8-4.4-7.2-6.5-16.4-3.5-24.3 6.1 6.7 6.1 17.2 11.5 24.4 3.6 4.9 9.3 7.8 14.3 11.2 4.4 2.9 8.5 6.3 12.2 10M596 643.5c1.2 2.6 3.2 4.7 4.7 7.1 1.4 2.5 2.2 5.6.9 8.2-1.4.4-2.7-1-3.6-2.2-4.6-6.7-9.5-14.4-8-22.5 3.9-20.9-5.6-42.6-1.7-63.5 3.1 0 4.3 4 4.6 7.1l2.4 27.9c.5 6 1 11.9.4 17.9-.6 6.7-2.6 13.9.3 20M440.6 768.1c2.7.7 3.6 4.8 1.6 6.7-13.5-6.7-20.7-21.2-27.1-34.8-2.3-4.8-4.6-9.8-4.7-15 0-1.6.2-3.2 1.2-4.5.9-1.2 2.8-1.8 4.1-.9.3 10.2 9.3 18.3 10.9 28.4.4 2.4.4 4.9 1.1 7.2.8 2.3 2.6 4.5 5 4.8-2-4.7-2.9-9.8-2.7-14.8 4.9.9 4.6 8.1 7.5 12.2 1.4 1.9 3.5 3.1 4.8 5.1 1.2 2 .6 5.3-1.7 5.6m-148-465.6c-1.1 3.1-1.1 7.5 2 8.7 1.3-3.5 3.4-6.6 6.2-9-3.8 6.9 1.7 16.8 9.6 17.3 2.2.1 3.2 3.2 2.2 5.3-1 2-3.1 3.1-5.2 4.1l-13.2-12.2c-4.3-4.1-8.9-8.4-10.2-14.2-2.2-8.9 4.1-17.7 10.9-23.9.7 1.8 1.9 3.4 3.4 4.7 1-4.2 3.1-8.1 5.9-11.2 1.9 5.3-.1 11.1-3 15.9-2.8 4.9-6.6 9.2-8.6 14.5M373.2 565c-8.3.9-16.6 1-24.9 1l-47 .5c-3.6 0-8.4-1-8.5-4.6l89-2c3.2-.1 6.5-.1 9.4 1.1s5.4 4 5.2 7.2c-4-2.3-8.5-3.6-13.2-3.8-3.3-.1-6.7.3-10 .6m-122.7-26.1c-4.4-1.2-5.6-7.2-3.6-11.3 2-4 5.9-6.7 9.2-9.6 3.4-3 6.5-7.2 5.8-11.6 12 7.1 15.1 25.1 7.2 36.6-1.4 2-3.1 4-5.4 4.9s-5.2.6-6.9-1.3c-2-2.3-1.3-5.9-1-9 .4-3.2-.6-7.2-3.7-7.7.2 3.1-.4 6.1-1.6 9m11.9 6.5c2.9-8.3 4.4-17 4.5-25.8-2.2-1.3-5 .8-6.6 2.9-1.2 1.5-2.3 3.3-2.2 5.2.2 1.9 2.5 3.6 4.1 2.6-1.9 4.8-1.9 10.3.2 15.1M489.3 129c-4.2-4-6-9.8-7.7-15.3l-6.5-21.4c-1.9-6.3-3.7-13.8.3-19 4.4 3.2 1.3 11.2 5.3 14.8 6 5.5 5.2 14.9 7.9 22.5 2.9 8.2 9.8 14.1 15.2 20.9s9.4 16.2 5.5 24c-2.5-7.4-5.3-15.2-11.3-20.2-2.8-2.3-6.1-3.8-8.7-6.3m-91 1001.3c-4.3 5.9-4.9 14.1-1.6 20.5-2.5 2-6 1.8-8.9.5-2.8-1.3-5-3.7-7.2-5.9.4-18.9 3.7-37.7 9.9-55.5.9-2.7 2.8-6 5.6-5.6l-8.4 39c-.9 4.4-1.6 9.7 1.6 12.9 4.4-6.1 7.5-13.3 8.8-20.8 3-1.9 6.7 2.5 6 6-.8 3.5-3.8 6-5.8 8.9M81.8 825.9c-4.1 1.1-8.2 2.1-12.1 3.6-4.2 1.6-8.1 3.8-12.1 6l-16.2 9.2c-2 1.1-3.9 2.2-5.3 3.9-1.4 1.6-2.8 4-4.8 3.4-1.5-9.5 6.6-18 15.4-21.8s18.7-4.5 27.6-8c6.6-2.5 12.5-6.5 19-9.1 6.6-2.7 14.2-3.9 20.5-.8-10.1 5.9-20.9 10.4-32 13.6m750.8-258.3c1.9-.9 3.9 1.7 3.5 3.7-.5 2.1-2.3 3.5-4.1 4.6-15.5 10.6-31.9 20.1-49.5 26.6-1 .4-2.3.7-3-.2-1-1.1.3-2.7 1.4-3.6 14-11.3 25.8-25.2 34.8-40.9.4 8.5-2.7 17-8.4 23.3a89.34 89.34 0 0 0 25.3-13.5M262.7 796.8c1 2.1 2.1 4.4 1.7 6.7-.2 1.4-.9 2.6-1.4 3.8-1.7 4.6-.3 9.7 1 14.4l4.4 15.4c-4.7-1-7-6.2-8.5-10.7-6-18.5-9.9-37.8-18.3-55.3-4-8.6-9.3-18.4-5.3-27l26.4 52.7m304.8 20.4c1.1 2.6 3.5 4.7 6.3 5.3.9 1.3-.4 3.1-1.9 3.3-1.6.2-3-.7-4.2-1.7-5.9-4.7-9.7-11.5-13.1-18.3-10-19.9-17.8-41-23.2-62.7 2.9-.1 4.9 2.9 6.2 5.4 9.3 18.2 17 37.1 23 56.6.6 2.1 1.3 4.2 2.9 5.6 2 1.6 4.8 1.7 7.3 2.3s5.2 2.4 4.9 5l-8.2-.8M339.1 93.8c-1.2-4.6 2-9 5-12.6l14.3-16.9c2.9-3.4 5.8-7.9 3.7-11.7-.9-1.5 0-3.2.4-4.9.4-1.6-.6-3.9-2.2-3.4 8.7-8.7 16.3-18.5 22.6-29.1 3 2.4 3 7.3 1.1 10.7s-5 5.9-7.7 8.8c-4.8 5.2-7.9 12-8.8 19 2.1-.6 4.2-1.3 6.3-2-8.8 16.1-20.6 30.4-34.7 42.1m464.1 526.3c4.4-4.6 8.5-9.5 12.3-14.6 4.7-.3 7.9-4.8 10-9.1 2-4.2 4-9.1 8.3-11.1-1 14.1-11 25.7-21.1 35.5s-21.3 19.6-25.8 32.9c-1.5 4.6-2.8 10.1-7.3 11.9-2.1-9.9 10.4-19.7 6.1-28.8-1.2-2.6.9-5.5 2.8-7.6l15-16.1-.3 7"/><path d="M452.6 15.8c3.6-3.4 9.4-1.3 14.1.3 7 2.5 14.5 3.6 22 3.2-2 2.5-4.8 4.4-7.9 5.2 3.2 1.5 7.4.7 9.8-1.9 1.6-1.6 4.2-.9 6.3-.1 6.3 2.8 12.3 6.5 17.5 11.1-6.3 1-13-1.1-17.7-5.5-1.8-1.8-4.9-.8-7 .6-2.1 1.5-4.2 3.4-6.8 3.2-1.6-.1-3-1-4.4-2L464 20c-3.9-2.7-9.5-.9-13.1 2.3-3.6 3.1-6 7.4-9.4 10.8-1.2 1.2-2.6 2.3-4.3 2.6s-3.7-.6-4.2-2.2c2.7-2.2 6.3-3.5 9.8-3.5.3-4.2-3.6-8.2-7.8-8.1-.9-2.4 3-3.9 5.4-2.9s4.9 3 7.3 2.1c2.3-.8 3.1-3.6 4.9-5.3M856.7 853c1.8 1.1 3.5 2.6 4 4.6.6 2.1-.3 4.5-2.2 5.3-.1-3.5-4.2-5.4-7.7-5.9-3.5-.4-7.4-.5-9.8-3.1 2.6 9.5 18 9.1 22.1 18-12.6-1-24.8-6.6-33.9-15.4-3.4-3.4-6.5-7.2-10.7-9.4-5.1-2.7-12.4-3.8-13.4-9.4.9-1.3 2.9-1.1 4.2-.2s2.2 2.3 3.4 3.3 3.1 1.6 4.3.6c1.3-.9.5-3.6-1-3.1 2.4-3-.8-7.4-4.3-8.8-2.1-.8-4.7-3-3-4.4.2-.2.4-.3.7-.4 4.6-1.5 9.1 3 10.9 7.6 1.7 4.5 2.3 9.7 5.6 13.3 7.3 7.9 21.4 2.1 30.8 7.4m-399.8 281c-2.9-15.6-3.8-31.5-2.9-47.4.9-.9 2.5-.5 3.2.4.8 1 1 2.2 1.2 3.4l3.5 25 4.6-16.6c3.4 2.2 3.4 7.2 2 11-1.5 3.8-4.1 7.2-4.7 11.2-.8 4.4 1 8.9 2.8 13.1l7.4 17.8-12.1.4c-1 0-2.2 0-3.1-.5-1-.5-1.6-1.5-2.4-2.2-2-2-4.8-2.7-7.1-4.3-2.3-1.5-4.1-4.6-2.6-7-4.3 2.8-10.1 5.5-14.1 2.3 7.8-3.4 16-5.6 24.3-6.6m4.3 13.2l2.1 3c1.1-3.3.8-7.1-.9-10.1-.9-.2-1.8 0-2.6.5l1.4 6.5m145.4-233.6c1.9 3 4.4 6.6 2.7 9.8-1.2-1.1-3.1-1.4-4.7-.7 1.7 3 4.2 5.4 7.2 7 .7 2.2-3.2 2.5-5.1 1.1-7.7-6-8-17.3-9.5-27-2.2-14.3-8.4-27.7-13.3-41.3-4.9-13.7-8.6-28.4-5.5-42.6 10.1 12.4 6.3 31.2 12.8 45.9 1.5 3.5 3.5 6.7 5.1 10.1 5.2 12 3.5 26.5 10.3 37.7m217.5-279.4c.6-2.5 1.6-4.9 3.1-7 2.4 5.4-1.2 11.4-4.6 16.3-2.9 3.9-5.7 7.9-8.5 11.9-1.2 1.7-2.5 3.4-2.8 5.4-.3 2.1.6 4.5 2.6 5.1-7.6 13.1-17.6 24.8-29.4 34.3-2.5 2-5.1 3.9-8.2 4.5-3.1.5-6.7-.7-8-3.6 3.3-.7 6.4-1.9 9.1-3.7 3.6-2.3 6.6-5.5 9.4-8.7 5.3-5.9 10.5-12 15.5-18.1 2.8-3.5 5.7-7.4 5.5-11.9l-8.3 4.3c-2.2-1.6-.6-5 1.2-7 7.1-8 14.9-15.3 23.4-21.8M378.2 889.7c-2-8.6-4.1-17.4-3.6-26.2.4-8.9 3.6-18 10.5-23.6 2.8 2 2.9 6.3 1.4 9.5-1.5 3.1-4 5.7-5.6 8.7-4.5 8.5-1.3 18.8 2.4 27.6 6.5 15.2 14.4 29.7 23.5 43.5-2.2-1.3-5.1 1.1-5.4 3.6-.2 2.5 1.3 4.9 2.9 6.9 1.5 2.1 3.3 4.1 3.9 6.6-6.2.7-10.6-6.1-11.7-12.3-1-6.1-.6-12.9-4.3-17.9-1.4-2-3.3-3.5-5-5.2-5.3-5.7-7.3-13.6-9-21.2m-75-24.9c1.1 3.6 5 5.3 8.1 7.5 3 2.2 5.6 6.6 3.2 9.5-4.3-2.9-7.2-7.4-11.1-10.8-4.1-3.8-9.3-6.3-13.9-9.5s-8.9-7.6-10-13.1l6.8 2.4c-4.3-10.9-9.4-21.5-15.2-31.8-1.8-3.2-3.6-6.4-4.3-10-.6-3.6.2-7.7 3-10l4.3 9.2c.6 1.4 1.4 2.8 2.7 3.5 1.4.7 3.5 0 3.5-1.5l12.2 40.9c1.4 4.5 3.6 9.8 8.2 10.4a26.37 26.37 0 0 0-2.1-8.8c2.4-.2 4.1 2.5 4.2 4.9.2 2.4-.4 4.9.4 7.2m-194.5-84.9c-5.2-2.3-10.2-5.1-14.9-8.2 3.5-3 10.1 3.9 12.9.2-8.9-7.2-15-17.9-16.5-29.3-.4-3-.5-6-1.8-8.7-1.1-2.2-2.9-3.9-4.6-5.6l-24.4-23.2c1.7-2.4 5.4-1 7.9.7 8.3 5.6 16.8 11.4 22.1 19.9 7.1 11.6 7.5 27.2 17.6 36.3 1.5 1.4 3.3 2.7 4.1 4.6.8 2-.3 4.8-2.4 4.8 2.3 3.8 6 6.8 10.2 8.2-2.3 2.9-6.9 1.8-10.2.3M70.4 642c3.5-3 6.2-7.1 7.5-11.6 6.7 16.8 16.3 32.1 25.9 47.3l29.1 46.1c-8.9-.9-15.2-8.8-20.4-16.1l-40.8-56.2c-2.1-2.8-4-7.2-1.3-9.5m565.3 316.7l-21.3-20.2c-1.6-1.5-3.3-3.5-2.5-5.5 8.3-.3 16.6 3.7 21.6 10.3 3.9-4.3 4.1-11.5.5-16.1-3.6-4.5-10.6-6-15.8-3.3-1.4.8-3.2-.9-3-2.5.3-1.6 2.1-2.6 3.7-2.4 1.6.1 3 1.2 4 2.5 1-3.9 6.7-4.8 10-2.5s4.7 6.5 5.7 10.4 1.9 8 4.6 10.9c9.2 9.7 15.1 22.4 16.6 35.7-4.5.5-7.8-3.9-9.6-8-1.9-4.3-3.2-8.9-5.4-13s-5.6-7.9-10.1-9.2c-2.2 1.2-.6 4.6 1 6.5 1.6 2 2.5 5.8 0 6.4M457.2 142.3l3.6-.7c-3.8-6.4-2.9-14.5-3-22-.1-12-3.4-23.9-9.4-34.3 1.9 2 5.6-.2 6-3 .4-2.7-1.3-5.3-2.6-7.7a46.11 46.11 0 0 1-5.4-27c10.8 15.7 16.7 34.7 16.6 53.7-.1 12.1 3.8 24.1 10.8 33.9-3.1.5-6.4-1.4-7.6-4.2-1.2 10.3 14 15.1 16.7 25.1-10-.8-19.5-5.9-25.7-13.8m235 363.1c1.2-4.3 1.3-9.4-1.4-12.9-3-3.9-9.3-6.3-8.7-11.1 1.7 0 3.4 1.1 4.1 2.7.6-7.2-.3-14.5-2.6-21.4-1.7-5.2-4.1-11.2-1.1-15.8 5.1 10.6 8.4 22.2 9.5 33.9.2 1.9-.7 4.7-2.5 4.1 7.9 6 10.2 18.3 4.9 26.6-3 4.7-1.6 10.9-.2 16.3.8 2.7 2.4 6.1 5.2 5.8 9.9-1 19.7 7.7 20 17.7-3.7-1.6-7-4.2-9.3-7.5-1.4-2-2.5-4.2-4.4-5.5-2-1.3-5.2-1.2-6.2.9-6.4-5.7-11.2-13.3-13.4-21.6 2.9-3.6 5-7.7 6.1-12.2M345 894.2v-14.4c0-2.5-.2-5.5-2.2-7.1-5.1-4.2.6-13.5-3.4-18.8l-15-13.2c-6.1-5.3-12.5-11.2-13.9-19.2 5.2-1.1 8.4 5.7 13.1 8.1 3.6 1.8 8 .9 11.4-1.2 3.4-2 5.9-5.2 8.4-8.3l9.6-11.9c2.5 2.4 1.7 6.5.2 9.6s-3.6 6.1-3.6 9.6c.1 2.9 1.7 5.5 2.6 8.3.9 2.7.8 6.4-1.7 7.9-3.9-3.8-6.1-9.1-6-14.4-5.4 3.1-10.3 7-14.7 11.4 5.3 5.8 12.6 10.1 15.6 17.4 1.2 2.8 1.6 5.9 2 8.9 1.2 9.2 2.3 19.3-2.4 27.3m-16.6 74.1c-2.8.8-5.9.3-8.3-1.2-.7 5.8-5.1 10.5-10 13.8-4.8 3.2-10.4 5.5-15.1 8.9-6.7 4.9-11.7 12-18.8 16.3-3.4 2.1-7.3 3.5-10.5 6-5.5 4.1-9.1 10.9-15.6 13.1 3.4-9.4 10-17.7 18.5-23a54.15 54.15 0 0 0 15-14.4c9.3-2.9 18-7.5 25.8-13.4 2.1-1.6 4.3-3.5 5.1-6.1 1.3-3.9-.9-8.2-3.9-11-3-2.9-6.7-4.9-9.6-7.8 1.6-.6 3.4-.4 4.9.4-1.4-2.8-3.2-5.5-5.2-7.9 5.2-.2 9.3 4.2 12.6 8.2l15.1 18.1m374.9 64c-2.8 2.1-6.7 0-9.5-2.1-9.3-7.2-17.9-15.1-25.9-23.6 2.1-1.2-.1-4.4-2.2-5.7l-10.2-6.1c-.8-.4-1.8-.9-2.4-.3-4.4 4-10.8 7.5-15.8 4.4-3.7-2.3-4.6-7.2-4.6-11.5 0-3.7.6-7.5 1.6-11.1 2.9 1.5 2.5 5.7 2 9-.6 3.2-.2 7.7 3 8.3 2.8-3.7-2.8-10.5 1-13.1 2.6-1.8 5.8 1.1 7.5 3.7 1.7 2.7 4.3 5.9 7.2 4.7-1.5-4.1-2.5-8.4-3-12.8 4.2 1.8 7.2 6.4 7.1 11 1.5-2 2.9-4 4.4-6.1-.4 3.5.7 7.3 3.4 9.6 3.1 2.7 7.6 2.8 11.7 3.4 4.1.5 8.7 2.2 10 6.2-4.7 1.2-9.4 2.1-14.2 2.6l28.9 29.5m-578.6-67.2c-1.7 3.8 1.1 7.9 3 11.7 1.9 3.7 1.9 9.6-2.1 10.6a157.59 157.59 0 0 1-12.3-29.4c-1.2 7.7.2 15.9 3.9 22.8-5.5-2.8-10.7-6.1-15.4-10.1-.8-.6-1.7-1.4-1.9-2.4-.3-1.1.2-2.2.7-3.2 4.7-8.6 13.4-14.1 21-20.5 8.5-7.2 15.8-16 21.4-25.7 2.2 3.2.3 7.7-1.9 10.9-2.1 3.3-4.8 6.9-3.8 10.7 2.6-2.4 4.8-5.3 6.2-8.6 1.8 2.4-.4 5.7-2.5 7.9-6.7 7.5-12.3 16-16.3 25.3m-18.9.5c-.6.7-1.3 1.3-1.9 2 1.2 1.9 4.5 2.1 5.9.3 1.5-1.8.6-5-1.6-5.8l-2.4 3.5m18.2-10.3c.4-1.6-2.3-2.6-3.6-1.4-1.3 1.1-1.4 3-1.4 4.8 1.9-.3 3.6-1.8 4.1-3.7m426.6-.4c5.7-2.1 9.3-8.6 8.3-14.5.9 1.2 1.9 2.4 2.8 3.5 9.2-4.4 17.1-11.6 22.3-20.4 2.5-4.2 6.3-9.6 10.9-7.8.8 3.2-4.9 4.2-5.8 7.3-.8 2.6 1.9 4.8 3.9 6.7 1.9 1.9 2.7 6.1 0 6.6.9-1.8-1.1-4.1-3.2-4.1-2-.1-3.9 1.2-5.5 2.4-18.1 13.5-37.1 28.2-44.5 49.5-1.3 3.9-4.9 6.9-8.9 7.6-4.1.7-8.5-1-11-4.2 2.2-1.9 5.3-2.4 8.1-3.4 8.2-3.2 13-11.9 15.9-20.3 3-8.4 5-17.4 10.7-24.3 0 5.4-1.4 10.7-4 15.4M723 625.8c1.2 3.3 2.9 7.5.2 9.6l-8.1-10c-1.5 2.4 1.3 5 3.2 7.2 5.3 6.1 3.2 15.6.7 23.4l-7.3-15.6c2.4 0 4.6 2.4 4.4 4.8 2.3-.7 3.1-3.7 2.3-6-.9-2.2-2.7-3.9-4.2-5.8-2.7-3.3-4.4-7.2-6-11.2l-4.2-10c-2.5-5.9-5-12.4-3.1-18.6.9-1 2.7-.5 3.6.6.8 1 .9 2.5 1 3.9l.8 10.4c5.3-3.3 7.2-11.2 4-16.6-1.1-1.8-2.7-3.3-3.5-5.3-2.5-6.1 2.8-14.6-2.1-19 3.6-1.3 7.9 0 10.1 3.1-1 1-2.2 1.8-3.6 2.3 5 9.9 9.9 21.7 5 31.6-1.3 2.6-3.3 5.1-3.4 8s3.1 6 5.5 4.3c-2.1-4.4-.4-10.2 3.8-12.7-.9 7.2-1.7 14.8.9 21.6M126.1 676l1.2-7.8c4.2 1.1 6.2 5.9 7 10.2.7 4.3 1 9.1 3.9 12.3.8 1.1 2 2.5 1.1 3.5-21.4-13-35.4-35.3-46.4-57.9-4.7-9.6-9.1-20.2-7-30.7 1.6-1.2 3.3 1.4 3.5 3.4 1.2 8.9 2.3 18.5 8.6 24.8-2.2-4.6-2.5-10.1-.6-14.8l28.7 57m-19.2-24.8c1.3 4.5 3 8.8 5.2 13 .7 1.3 1.7 2.8 3.2 2.9a31.92 31.92 0 0 0-8.4-15.9m72.6 216.7c-.9 3.3-1.9 6.5-2.8 9.7l5.8-1.3-4 11.5c-1.1 3.3-2.3 6.7-4.7 9.3s-6.2 4-9.4 2.6l10.6-12.9c-.5-2.7-4.6-2.8-6.5-.9s-2.3 4.8-3.4 7.3c-2.3 5-7.1 8.3-11.7 11.3l-36.4 24c-3.9 2.6-9.1 5.3-13.2 2.8l44.6-32c-.7-1.1-2.3-1.6-3.4-.9-.9-1.8.9-3.8 2.5-5.1l32-25.4m-20.9 26.4c1.2-1 1.6-2.9.8-4.3-1.4 2.7-5.8 2.9-6.6 5.8-.6 1.9 1.2 3.9 3.2 3.7 1.9-.3 3.1-2.7 2.1-4.4M113 597.9L100.8 566c10.6 6 15 18.7 19.9 29.9 4.8 11 10.8 21.4 18 30.9 4.6 6.1 9.9 13 8.8 20.5-22.4-20.8-45.6-43-55.1-72-2-6.2-3.3-12.9-1.3-19.1.3-1.1.9-2.2 1.9-2.8 1-.5 2.5 0 2.7 1.1 2.2 15.6 6.4 31.9 17.3 43.4m431.9-66.7c-5.1-7.2-6.1-17.1-2.6-25.2 1 .2 2.1.4 3.2.5.2 8.3 5.2 15.7 7.3 23.7 2.8 10.5.4 22.2-6.1 30.8 15-2.4 30.4-2.3 45.4.5 4.4.8 8.8 1.8 13.3 1.5 2.7-.1 5.4-.8 8.2-.6 2.7.3 5.6 1.7 6.3 4.4-7.8 1.6-15.9 2-23.8.9-4.3-.6-8.6-1.6-12.9-2.2-8.9-1.4-17.9-1.3-26.8.1-12.1 1.9-24.8 6.3-36.1 1.4 10.1 1 19.9-7.9 20-17.9l2.4 10.3c4-9 7.8-20.1 2.2-28.2m-48-524.3c2.8-5.1 10.3-4.2 15.8-2.3 33.9 12 62.2 38.8 76.1 72 .6 1.5 1.1 3.5 0 4.6-1.7 1.7-.3 4.3.8 6.3 2.6 4.7 3.2 10.5 1.7 15.6-6.4-6.6-5.5-17-7.4-26-2.2-10.4-8.3-19.4-14.9-27.7-18-22.5-43.3-42.2-72.1-42.5m340.5 646.9c3.7-1.6 4.4-6.4 4.1-10.4-.2-4-.9-8.3 1.4-11.6 4.3-6 7.3-13 8.6-20.4 1.5-.1 2.1 1.9 2.2 3.4.8 26.4-16.3 49.5-27.8 73.3-3.7 7.6-7 15.7-13.3 21.5 3.4-14.2 6.8-28.8 15.1-40.8 6-8.7 4.2-20.3 4.1-30.8 0-13.2 3.3-26.4 9.5-38 3.5 17.7-7.8 36.1-3.9 53.8"/><path d="M299.9 1097.1l2.6 13.6c.3 1.7.6 3.5-.1 5-.6 1.5-2.7 2.5-4.1 1.5-1 4.4 1.3 8.9 3.9 12.6 2.7 3.6 5.8 7.2 6.9 11.6 1.1 4.3-.9 10-5.4 10.8-.4-8.6-4.9-17-11.8-22.2-1.8 7.2-3 14.6-3.4 22-5.1-2.6-7-10.1-3.7-14.8 4.4-12.8 4.7-26.9.9-39.8-2.4-8.4-6.6-17.5-2.7-25.4.8-1.6 2-3.1 3.7-3.5 2.8-.7 5.3 1.5 7.1 3.7 1.5 1.8 3.1 3.9 3 6.2s-2.8 4.6-4.8 3.4c.7-2.3-1.4-5-3.8-4.9-2.1 3.4-1 7.8.3 11.6 2.5 7.5 5.5 14.8 9.1 21.8l-1.8-22.3c6.6 3.1 12 8.5 15.3 15-3.5-2.5-7.2-4.5-11.2-5.9m16-374.4c8 7.8 15.8 15.7 23.6 23.7-3.9 5.8-5.1 13.4-3.3 20.1-2.1 1-4.7.5-6.4-1 4.1-8.5 2.5-19.4-3.8-26.4-2.8-3.2-6.4-5.5-9.3-8.6s-5.1-7.3-4.2-11.4c-2.7.4-4.5-2.9-4.9-5.6-.3-2.8-.5-6.1-2.9-7.5-11.6-6.8-22.1-16.1-28-28.2-5.6-11.4-6.5-24.9-2.7-37 1.5 25.1 19.1 46 35.8 64.9 1.9 2.1 3.8 5.3 2 7.5 1.9 1 3.8 2.1 4.9 3.9s.9 4.5-.8 5.6m308.8-383.2c1.4-8.6-3.4-17.8-11.2-21.6 6.6-1.2 12.3 4.3 16.8 9.3 1.7-2.9-1-6.4-3.5-8.8l-15.4-14.3c-.9 1.5-1.7 3-2.6 4.5 1.6 1 3.2 1.9 4.8 2.9-1 2.9-6.1 1.9-7-1.1s.8-6.1 2.7-8.5c-2.5-1.1-5-2.2-7.4-3.4 1.6-2.2 4.8-3.1 7.4-2.2 1.1-.5 0-2.1-.4-3.3-.7-2.1 1.9-4.2 4.2-3.8 2.2.3 3.9 2.1 5.4 3.8-2.4-.6-5.1.5-6.1 2.7s.2 5.2 2.5 5.8l16.8 4.1c1.9.5 3.9 1 5.4 2.2 2.8 2.3 3.4 6.3 3.7 10l1.9 20c-3.9-2.4-7.4-5.3-10.4-8.7-2.7 3.6-3.8 8.4-3.1 12.8 3.4-.5 7 .7 9.3 3.3.5-1.6 3-2 3.9-.7.7 2.5-2.5 4.2-5.1 4.2-2.5 0-5.4-.5-7.3 1.3s-5.3-.2-5.9-2.7c-.7-2.5.2-5.2.6-7.8m10.1-16.7c1.9-5.7.2-12.4-4.1-16.6-1.1 5.8.4 12 4.1 16.6M162.7 603.4c-10.7-23.8-22.6-47.1-35.8-69.6l5.2-16.2 21.6 47 29.6 65c2.2 5 4.5 10.1 4.5 15.5-9.1-3.4-12.6-14.1-17.1-22.8-4.5-8.6-11-16.1-18.8-21.8-2.6-1.9-5.3-5.9-2.5-7.5 3.5 4.5 8.1 8 13.3 10.4m-25.1 396.3c-1-5.1-6.7-9.8-4.4-14.5 3.1 1.6 5.6 4.5 6.6 7.8 10.7-13.1 18.8-28.3 23.7-44.5-1.2-1.1-3 .4-3.8 1.8-4.6 7.3-8.7 14.9-12.3 22.7-2.5-4.4-2-9.9.2-14.4s5.9-8.1 9.7-11.4c9.6-8.3 20.5-15.1 32.2-20.1 1.8-.8 4-1.6 5.8-.7s2 4.2 0 4.6c-9.8 1.6-18.7 7.5-24.2 15.7-7.9 12.1-8.5 28.7-19.1 38.6-3.3 3-7.7 6.1-7.3 10.5.3 5.2 7.6 9.1 5.8 14.1-3.2-3.3-6-6.9-8.3-10.8-.2 4-.5 7.9-.8 11.9-2.1-.4-3.3-2.7-3.5-4.8-.3-2.1.1-4.3-.3-6.5M90.3 579.1c2.7 2.3 1.5 6.6.2 9.9l-13 31.4c-2.7 6.3-5.3 12.7-9.1 18.5-4.2 6.6-10.1 12.9-10.3 20.7-.1 4.9 2 9.5 4.4 13.7 4.6 7.9 10.6 15.1 17.5 21 1.6-1.6.8-4.4-.8-6.1-1.5-1.7-3.6-3-4.5-5.1-1-2.1.2-5.3 2.5-5 7.1 5.1 10.9 14.5 9.1 23.1-11.6-4.5-22-11.6-30.4-20.8-5.9-6.4-10.8-16.2-6.1-23.5 16-24.6 29.6-50.7 40.5-77.8M288.8 1023a34.43 34.43 0 0 1 3.2 13.8c2-.3 3.8-1.3 5.2-2.7 1.6 1.9 2.1 4.6 1.1 6.9-3.6 1-7.6-1.4-9.6-4.6-2.1-3.3-2.6-7.2-3.1-11l-38 22.4a100.09 100.09 0 0 1 43.4-32.6c6.5-2.5 14.1-5.2 16.5-11.7 1.9-5.2.7-12.8 5.9-14.7l2.1 3.4c9.9-16.6 23.5-31.1 39.5-42-4.4 18.4-23.1 29-34.8 43.9-4.5 5.8-8.1 12.4-12.8 18-4.8 5.7-11.3 10.5-18.6 10.9m610.9-261.7c-.9-1.1-2.1-1.8-3.1-2.7-3-2.8-3.7-7.8-1.5-11.3-6.4 5.6-11.7 12.5-15.5 20.1-3.2-1.8-7-1.4-10.6-.9-12.4 1.6-24.7 4.4-36.6 8.2-10.5 3.3-22.6 7.3-31.8 1.2 11.8-5.6 25-7.5 37.9-9.4s26.1-4.1 37.6-10.3 21.2-17.2 22.2-30.3c.3-3.8-.1-7.8.5-11.6s2.6-7.8 6.2-9.2c-.8 8.8-1.2 17.7-1.2 26.5-3.3 0-4.7 4.2-4.7 7.5 0 8.7 3.3 17.1 4.4 25.8s-.7 18.8-8.1 23.5c-3-3.9-.3-9.4 2.3-13.6 2.7-4.1 5.2-9.8 2-13.5m-305.1 255c.8 3.1 2 6.1 3.7 8.8.8-1.7 2.1-3.3 3.6-4.5.1 4.2-.4 8.4-1.4 12.5 5.8 3.8 12 7.8 19 8.2 7 .5 14.8-4 15.4-11l4.4 4.7c-1.3-7.2 3-15 9.7-17.8-1.8 9-4 18-6.7 26.8-.6 1.7-1.1 3.4-2.4 4.5-1.9 1.6-4.5 1.6-7 1.5l-28.2-1.4c-4.3-.2-9.3-.8-11.4-4.6-1.3-2.5-1-5.6-2.4-8-1.6-2.7-4.9-3.8-6.8-6.1-4-5.1 0-12.4 0-18.9-.1-7.3-5.8-13.6-12.4-16.6-6.7-3-14.2-3.4-21.5-3.5.7-3.1 3.4-5.5 6.5-6-.5-1.3-1-2.6-1.6-3.8a52.62 52.62 0 0 1 12.1 7.1l1.8-5.7c4.8 3.3 9.6 6.7 13.3 11.2 3.7 4.4 6.1 10.3 5.2 16-1.4 8.8.5 18 5.1 25.5 2.4-.8 2.8-4.1 1.9-6.5-.9-2.3-2.7-4.4-3.3-6.8-.6-2.5.8-5.7 3.4-5.6m9.3 30.5c.9.2 1.8.3 2.7.4.5-2.7-1.6-5.7-4.4-6-.5 1.9.2 4.1 1.7 5.4m-93.2-957c4.8 14.8 9.9 29.4 15.2 44.1 1.7 4.7 5.4 10.5 10.2 9-1.6 4.9 1.4 11 6.4 12.5-3.2-7.1-2.5-15.8 1.7-22.3 3.5 10.2 4.2 21.4 2.1 32l10.3-15.5c1.9 1.6 5.4-1.1 4.2-3.3 3-.7 4.8 3.7 3.4 6.4s-4.3 4.2-6.5 6.2c-10.5 9.1-6.3 28.3-16.9 37.3l-3.1-28.1c-.5-4.6-1.3-9.9-5.2-12.4-4.6-3.1-7.6-7.9-10.3-12.7A287.1 287.1 0 0 1 493.1 71c.2 2.8-4.5 2-6.4-.2-2.8-3.2-5-6.9-6.4-11 13.2 4.7 23.3 17.4 24.8 31.4 1.4-1.5 3.6-2.2 5.6-1.6m-152 680.6c7.8 5.4 13.7 13.6 16.2 22.8l-4.9-3.9v30.2c-9.5-11.8-20.5-22.5-32.5-31.8-2.5-1.9-5.1-3.9-7.2-6.3-2.6-3.2-4.1-7.1-6.6-10.3-3-3.8-7.1-6.4-10.4-9.8-8.3-8.4-13-22.3-24.6-24.1 1.4-2.7 5.5-1.3 8 .4 7.6 5.3 15.7 11.2 18 20.1 3.4-.8 4.1-5.8 2.2-8.8-1.9-2.9-5.2-4.7-7.8-7.1-2.5-2.4-4.3-6.6-2.2-9.4-7.3-.4-13.4-7.7-12.5-14.9a134.66 134.66 0 0 1 24.2 26.9c1.6 2.4 3.3 5.1 3.1 8.1-.2 4.3-3.6 9.9.2 11.9 6.1 3.1 10.7 8.9 12.3 15.5l1.7-8.6c5.7 6.3 10.6 13.4 14.6 21 1.4-1.5 3.9-1.4 5.3 0s1.3 4-.1 5.3c3.1 2.8 5.6 6 7.5 9.7 6-11.4.8-25.2-4.5-36.9m481.2-203.8c-2.5-16.3-8.4-32.1-17.2-46.1-7.5-11.8-17.2-22.4-29.3-29.5a48.82 48.82 0 0 0-14 22.4c-2.8-7.9-2.1-16.9 2-24.1-.3 1.9 2.4 2.9 4.1 2.2 1.8-.7 3.1-2.2 4.9-3.1 3.1-1.4 6.7-.1 9.8 1.6 23.1 12.5 33.5 39.7 42.1 64.6l33.9 98.8c1.2 3.4 1.1 8.8-2.5 8.9l-30-87.5c-1-2.9-2-5.8-3.8-8.2m-43.4 164c4.7-8.7 14.9-12.7 22.4-19.2 6.7-5.8 11.5-13.9 13.2-22.7 1.1.9 2.3 1.8 3.5 2.7l16.2-34c2-4.1 4.3-8.7 8.6-10.3-4.9 21.8-14 42.8-26.5 61.3 14.5-6.8 25.8-18.8 36.8-30.4 4.6-4.9 9.3-10 11.8-16.2 1.2-2.9 1.8-6 3.2-8.7 3.7.5 2.9 6.2 1.1 9.5l-14.5 26.9c1.3 2.1 4.5-.1 5.5-2.3.9-2.3 2.1-5.3 4.6-5-3.4 20.6-22.8 37.5-43.8 37.9l20.1-11.6c3.4-2 7-4 9.5-7.1 2.4-3.1 3.7-7.5 2-11.1-4.8 9.8-15.6 14.9-25.6 19.3l-48.1 21m-579.2 357c7.3 1.3 13.7 6.9 16 13.9 1.6-1.4 2.3-3.8 1.6-5.8a89.87 89.87 0 0 1-22.8-29.8c-1.3-2.7-2-6.6.6-8 2.2 1.9 3 5.2 1.9 7.8 1.1.1 2.2-.5 2.8-1.4 14.5 15.2 26.9 32.4 36.9 51 3.8 7 7.4 14.4 13 20.1 5.3 5.3 12.6 9.4 14.5 16.7-6 .8-11.4-3.6-15.7-7.9-16.2-16.7-29.1-38.3-50.7-46.9 14.2 20.5 32 38.5 52.3 53-1.2 2.4-4.8 1.3-7.1-.2-13.7-9-26.4-19.5-37.9-31.1-3.6-3.7-7.1-7.5-9.2-12.2s-2.5-10.3 0-14.8c5 3.9 10.9 6.6 17.1 8l-13.3-12.4m28.5 25.2c.8-2.6-1-5.3-2.7-7.5-2 2.5-.4 6.9 2.7 7.6M409.4 87.5c1.8-11.5-7.8-21.2-16.2-29.3-2.3-2.3-4.5-6.3-1.9-8.2 1.1.8 1.7 2.4 1.6 3.8 3.2-.1 6.4 2.2 7.4 5.2l6.3-9.3c-1 9.9 1.4 20.1 6.6 28.6.8-1.7 1.5-3.4 2.3-5.1 2.9.3 2.8 4.5 1.8 7.3l-10.1 27.2c-4.8 13.1 11.2 26.4 8.1 40 5.2 2 10-3.3 13-7.8 5.3-8 10.9-17.9 7.1-26.7L423 84.3c-.9-2.3-1.1-6 1.4-6.2 4.4 1.9 6.4 7 8 11.6l10.1 30c2.5-3.1 4.8-6.3 6.8-9.7 2.1.1 3 3 2.3 5-.7 1.9-2.4 3.4-3.5 5.2-3 4.9-1.2 11.2 0 16.8 1.2 5.7 1.2 12.7-3.7 15.7.1-8.1-1.7-16.2-5.1-23.6-3.5 4.9-5.7 10.8-6.4 16.8 2.3-2.3 4.1-4.9 5.3-7.8a72.84 72.84 0 0 1 2.4 16.1c-4.4-1.7-8.3-4.6-11.4-8.1l-3.8 8.9c-3.7.9-7.8-.9-10.5-3.6-2.8-2.7-4.5-6.3-6.2-9.8-5.4-11.2-10.9-23.9-7-35.7 2-6.4 6.7-11.8 7.7-18.4m187.4 1035.2c-22.7-13.6-41.3-33.7-53.2-57.3l-3 7.3c-3.6-3.3-6.9-7.1-9.6-11.3 1.1 1.3 3.5-.2 3.5-1.9.1-1.7-1.2-3.1-2.4-4.4-8.3-8.8-14.7-19.4-18.6-30.9 4.8.7 9.3 2.7 13 5.9-2.1-5.3-1.3-11.5 1.9-16.1 2.7 12.1 6.5 24 11.5 35.4 1.5 3.7 3.5 7.6 7.1 9.3 7.9 3.8 20.1-4.3 24.9 3.1-.6-3.5 6-4.2 7.1-.8s-2.3 6.8-5.9 7.3c-3.5.6-7-.9-10.4-2-3.3-1.2-7.2-2-10.4-.4 12 20.3 28.3 38.1 47.4 51.9-3.1-7.5-4.6-15.6-4.4-23.8 3.8 10.9 12.3 20.1 22.9 24.8-.1-2.9 1.6-5.8 4-7.3 2.8 10.9 1.7 22.7-2.9 32.9l-10.5-20.4c-1.1 9.5.7 19.3 5.3 27.6l-10.2.5c1.6-10.6 2-23.8-7.1-29.4m23.3 1.7c-.5-.8-1.1-1.6-1.7-2.4-2.1 1.7-2.1 5.4-.1 7.2 1.4-1 2-2.9 1.4-4.5"/><path d="M653.9 1091.4c-5.6-15-4.2-32.5 3.9-46.4 3.9 7-1.3 15.4-1.9 23.4-.5 5.5 1.3 10.9 3.4 16 4.8 12.4 11.1 24.2 18.7 35.2l3.5-14.5c-.7 3.6 2.9 6.2 5.8 8.4 2.8 2.1 5.6 6.2 3.2 9-1.7-2.3-4.6-3.8-7.5-3.7l5.9 22.2c-.8-2.4-4.7-2.3-6.3-.2-1.6 2-1.5 4.8-1.3 7.4 13.7-9.7 26.3-20.9 37.6-33.3-5.3 17.9-20.1 32.7-38 38.1-3.4 1.1-6.1-3.5-5.3-7 .8-3.4 3.6-6.1 5.3-9.2 1.8-3.1 2.2-7.7-.9-9.6-7.5-4.7-12.2-12.7-16.6-20.4 2.2 10.9 5.4 21.6 9.6 31.9-5.6-.4-9.8-5.5-11.5-10.8s-1.6-11-2.8-16.5c-3.1-13.6-13.6-24.2-23.7-33.9 3.1-.9 6.6.3 8.6 2.8 1.3-2.4 1.5-5.6.3-8.1-10.5-1.1-21-1.4-31.4-1-5.7.2-11.6.6-16.7-1.9-5-2.5-8.7-8.9-5.9-13.9 16.8 9.1 36.7 9.9 55.8 10.6-1.9 9.1 1.3 19.1 8.2 25.4M18.5 786c1.7 7.2-3.4 14-6.4 20.7C6 820.9 10 838.8 21.6 849l2.6-6.9a19.58 19.58 0 0 1 1.7 15.5c1.8-.4 3.5-.9 5.2-1.4 15.6 27.3 29.6 55.5 41.7 84.4-11.1-10.3-19.6-23.5-24.1-38.1-9.2-29.3-39.5-49.6-44.5-80-4.2-25.8 11.3-50.8 13-76.9.4-4.7.3-9.7 3-13.5 1.8-2.6 4.7-4.5 5.7-7.6 1-3-2.5-7.1-4.9-5 6.7-8.9 10.3-19.9 10.1-31-.2-7.7-1.3-17.3 5.3-21.4 2.2 10.2 2.2 20.8-.1 31-2.2 9.6 2.8 19.3 8.2 27.6 6.7 10.3 14 20.1 22.1 29.3-10.9-2.6-21.4-7.2-30.8-13.4 3.7-3.5 4.7-9.4 2.4-13.9-12.4 21.1-21.7 44.1-27.6 67.9a25.38 25.38 0 0 0 7.9-9.6m596.4-617.8c0 14.1-3.3 28.7 1.6 42 7.5-8.5-3.7-26.5 6.5-31.7 1.7 13.6 1 27.5-1.9 40.8-16.3-13.3-17.4-38.3-31.2-54.3-9.2-10.7-24.6-18.7-25-32.9 2.8 2 5.6 3.9 8.4 5.8 7-1.6 8-11.6 4.4-17.8-3.5-6.1-9.8-10.4-13.2-16.6-5.3-9.9-2.6-23-9.2-32-2.4-3.4-5.9-5.9-8.1-9.4-2.2-3.6-2.4-9 1.2-11.1.5 6 4.1 11.7 9.4 14.7L550 33.3c12.5 14.5 7 38.3 18.5 53.6 3.9 5.2 9.4 8.9 14.4 13.1 20 16.6 32 42.3 32 68.2m-12.4 1l3.3-6.6 1.3 27c1.3.4 2.7.9 4 1.3-1.6-6.6-1.5-13.5.2-20.1.9-3.2.1-6.6-.7-9.9-3.1-12.3-6.4-24.7-12.2-36-5.9-11.3-14.6-21.5-26.1-26.9-1.2 2.9 1.6 5.8 3.9 7.9a41.39 41.39 0 0 1 9.7 14.1c1.7 4.2 2.6 9.4-.4 12.8-5.1 5.9-3.7 16.3 2.9 20.5-2-6.1-1.5-13 1.2-18.7l6.1 22c1.3 4.7 2.8 9.7 6.8 12.6m-255.1 840.1c-2.8-3.5-2.3-8.7-.6-12.8 1.7-4.2 4.4-7.9 6-12.1 2.5-6.8 1.8-14.3 3.1-21.4 2.9-15.3 16.5-27.9 31.9-29.6-1.7 4.3-5.5 7.8-10 9.1 9.1 14.4 14.8 30.8 16.7 47.7 2-6.3 3.4-12.8 4.1-19.3 4.4 8 1.1 17.8-.9 26.8-2.7 12.2-3 25-.6 37.3 12.8-10.5 24.8-21.8 36.1-33.8 2.7-2.9 5.5-7 3.7-10.5 3.3-1.3 6.3-3.7 8.2-6.7.9 9-3.5 17.6-7.5 25.8-11.2 23.3-19.4 48-24.4 73.4-.7-5.1-3.4-9.9-7.4-13.3-1.2-1.1-.5-3 .3-4.5l21.5-39.9c-8.9-2.5-19.2 3.6-21.2 12.6-1-1.4-2.4-2.5-4.1-3 .1 5.3-1.3 10.6-4.1 15.1l-19.3-41.9-23.1 19c-1.7 1.4-1.4 5.5.2 4.1-1.6 2.1-5.2 2.1-6.9.1 2.1-13.6 19.7-17.5 28.9-27.7 7.3-8.1 8.8-20.1 6.5-30.7s-7.9-20.2-13.5-29.5c-8.2 8.5-9.3 21.4-11.7 33-2.3 11.4-6.2 22.6-11.9 32.7m322.4-605.4c-10.1-2.3-19.2-8.5-25-17.1 18.9 5.5 38.1 9.8 57.6 13-1.9-2.1-3.7-4.3-5.5-6.5 8 5.1 16.9 8.9 26.1 11-1.2-5.2-6.9-8.9-12.2-8 26.1-3.9 52.2 10.5 69.3 30.7 17 20.1 26.6 45.3 35.9 70-11.7-7.3-21.4-17.6-28-29.8 8 3 14.5 9.9 17.1 18.1 2.1-4.7-.3-10.4-4-14s-8.6-5.6-13-8.3c-22.1-13.3-33.1-41.2-56.5-52 11.7-2.6 21.4 8.6 28.9 18 9.8 12.1 21 23.1 33.3 32.6l-16.5-33.5-.7 8.7c-5-3.7-7.6-10.3-6.4-16.4-9.7-7.3-20.1-14.9-32.2-15.8-12-.8-25.6 8.4-24.5 20.5-7.3-7.1-16.1-12.7-25.7-16.5 2.4-.4 4.7-.9 7.1-1.4a76.49 76.49 0 0 0-27.8-9.1c.4 2.2 1.3 4.2 2.7 5.8m39.6 6.4c-.6-1.1-.8-2.5-.5-3.7-3.1-1.4-6.5-2.2-9.8-2.4 1 3.1 3.5 5.4 5.9 7.7 2 1.8 4.3 3.7 7 3.5 2.6-.3 4.4-4.4 2.1-5.7-1.5-.8-3.5-.6-4.7.6m-94.7 429.9l13.1 8.4-9.3 1.7c6.8 11.8 16.9 21.8 28.8 28.7.9-3.2 1.9-6.3 2.9-9.5 14.3 38.5 32.3 75.6 53.8 110.6 9.1 15 19 29.8 23.7 46.6 4.7 16.9 3.4 36.6-8.2 49.7l-2.7-9.8c7.5-4.1 10.8-13.6 9.9-22.1-.8-8.5-4.9-16.3-8.9-23.8L650.5 894c-2.8 3.2-.9 8.1 1 11.7l38.7 72.9c4.6 8.8 9.3 17.9 10.1 27.8l-37-65.1c-4.6-8.2-11.1-17.5-20.5-17.3.2-2.3.3-4.6.4-7 1.7 2.9 5.4 4.5 8.7 3.7-6.2-4.7-5.8-13.8-7.8-21.3-3-11-11.6-19.3-18.8-28.1s-13.5-20.1-10.6-31.1M647 883c-3.2-3.5-7.3-6.2-11.8-7.8 3.5 5.1 7.6 9.8 12.1 13.9 2.3-.8 1.3-4.3-.3-6.1m185.3 47.6c3.5 3.4 7.2 7.2 7.6 12.1.3 3.2-.8 6.3-2.2 9.1-5.7 11.6-15.7 21.1-27.6 26.2.1 2.4.3 4.9.5 7.3 14.4-3.5 23.6-17.7 29.4-31.5 12.5-29.8 16.6-63.2 33.2-91 3.8-6.3 8.4-12.7 8.6-20.1.3-7.4-6.4-15.6-13.5-13.4 3.4.6 5.2 5.2 3.2 8-3.3-5.2-8.4-9.2-14.2-11.2 1.2 4.3 2.3 8.6 3.4 13-5.8 1.7-10.9-6.5-8-11.9 2.8-5.4 10.2-6.9 16-5s10.3 6.4 14.6 10.7l4.5-5.2c2.3 7.8-.6 16.1-3.5 23.8l-28 74.5c-8.8 23.4-18.7 48.3-39.4 62.4-1.4 1-3.2 2-4.9 1.6-1.8-.4-3-2.1-3.9-3.7-5.5-9.4-8.2-20.3-7.8-31.2l8.1 18c-.7-19.7-14.3-36.2-27.2-51.1 7.8.7 14.5 8 14.5 15.8 4.1-4.5 11.1-6.1 16.7-3.9 5.7 2.2 9.8 8.1 9.8 14.2-5.7-4.5-11.8-8.4-18.2-11.7 1.1 3.5 3.7 6.6 7 8.4-1.4 1.2-2.7 2.5-4 3.8 3 7.3 5.5 14.9 7.4 22.6 11.4-6.2 21.5-19.7 15.9-31.4-1.8-3.8-5.1-6.8-8.4-9.5-15.2-12.5-32.5-22.5-51-29.6 7.7-5.1 18.1-1 26.1 3.7 12.6 7.5 24.5 16.3 35.3 26.2M358.1 130.5c-4.1.5-5.2-5.5-4.5-9.5-6.4 7.3-6.6 18.1-6.4 27.8l.7 33.8 8.6-13.5-3.1 14c3.1-3.2 7.1-5.5 11.5-6.4l-2.5-14c5.2-1 9.2 5.6 8 10.8-1.3 5.1-5.8 8.8-9.9 12L324.1 214c1.8-4.6 4.8-8.7 8.7-11.7-17.1 4.5-31.6 17.8-37.6 34.5 2.4.5 5 .3 7.2-.7-3.1 9.6-8.3 18.6-15.1 26 .2-3.9-.5-8-2.2-11.5 6.7-1.1 9.2-9.4 9-16.2-.3-6.7-1.6-14.2 2.4-19.6 2 2.9 6.9 1.3 8.5-1.9 1.6-3.1 1-6.8.9-10.3-.2-3.5.5-7.6 3.5-9.4.1 1.6.9 3.1 2.2 4.1 8.9-8.1 15.1-19.3 17-31.3l-18.7 23.4c-1.3.2-1.4-1.8-.9-2.9l23.1-56.1 2.5 21.9 23-62.7c3-8.1 6.1-16.5 11.8-23.1 3.1 4.4-1 10-2.7 15.1-6.1 17.4 16.6 33.7 14.1 52l-3.9-5 12 40.3c-10.9-13.9-19-29.8-23.9-46.7l-3.7 22.9c-4.3-3.3-5.8-9.8-3.2-14.6m-16 28.4c1.9-3.3 2.1-7.5.6-10.9-7.2 15.4-12.7 31.7-16.2 48.4 7.9-8.2 12.4-19.7 12.2-31.2-.1-2.7.7-6.6 3.4-6.3m16.8-39c5.3-4.2 7.2-12.2 4.3-18.3-2.4 5.8-3.8 12-4.3 18.3m-11.7 43.5c-.6-.8-1.2-1.5-1.8-2.3-2.9 2.3-3.4 7.1-1 10 1.9-1.9 2.9-4.8 2.4-7.5m-4.4 23.9c-2.4.3-4.3 2.4-4.4 4.8 1.5-.3 3.1-.6 4.2-1.6 1.2-1 1.7-3 .6-4.1m-86.7 585.6c-17.3-26.7-22.3-60.1-40.6-86.1-10-14.3-24.7-28.9-21.4-46l11.5 9.1c-22.4-44.9-41.9-91.2-58.3-138.6-4.9-14.3-8.6-32.8 3.1-42.4.8 6.3 0 12.9-2.3 18.8 7.7 5.5 12.4 14.9 12.2 24.4-2.1-2-4.2-3.9-6.3-5.8 10.3 36 25.5 70.6 45.1 102.5-13.9-47-29.1-93.6-45.7-139.8-4.1-11.4.8-25.4 11.2-31.7-3.2 23.1-5.9 48.3 6.5 68 11.9 19 20.2 39.9 28.5 60.7 11.1 28 22.4 56.5 25.1 86.6-1.7-1.4-3.3-2.8-4.9-4.2 2.2 7.1 3.2 14.7 2.9 22.2-4.3-4-7.4-9.3-8.7-15-2.6 7.3 1.8 14.9 5.8 21.6 15 24.9 26 52.3 32.5 80.7.8-7.2 1.3-14.3 1.6-21.5l10.2 42c-3.4.5-6.1-2.6-8-5.5m-56.9-194.3l5.7 31.5c1 5.4 2 10.9 4.1 15.9 1.8 4.2 4.3 8.3 4.2 12.8 2.3-1.1 2.8-4.3 2-6.7-.9-2.4-2.5-4.5-3.4-6.8-1.1-2.8-1-5.9-1.1-8.9-.5-13.3-4.4-26.5-11.5-37.8m32.1 354.8c-24.4 15.8-44.8 37.5-58.9 62.8-4.2 7.6-7.9 16.9-4.1 24.6 3.3-5.5 4.9-12 4.6-18.5l7.7 3.2c-3.9-4.5-3.3-11.6-.1-16.7 3.1-5.1 8.2-8.7 13.1-12 .4 2.8-2.2 4.9-4 7-5.4 6.3-4.9 16.1-1.1 23.4 3.8 7.4 10.3 12.9 16.7 18.2-2-8.3 4.3-15.9 9.4-22.6 8.8-11.5 15.4-24.6 19.5-38.5l-6.9 7.4c3.7-13.6 11.2-26.2 21.5-35.8l-23.1 75.4c-1-4.5-1.2-9.2-.5-13.7-7.6 9.1-8.7 23-2.6 33.2-5.1-3.5-9.4-8.3-12.2-13.8.3 9.4 4.8 18.7 12.1 24.8 12.5-54.4 54-97.5 73.5-149.9l-27.1-19.9c8.1-2.3 16.4 2.9 22.4 8.7 6.1 5.9 11.7 12.9 19.6 15.5-2.8 2.2-7.2 2-9.9-.4-3.9 6.5-6.7 13.6-8.2 20.9 1.7-1.2 3.3-2.5 5-3.8-4.1 17.6-12.6 34.2-24.5 47.9l9.3-25c-19.6 28.1-36.4 58.2-50.2 89.5-1.6 3.5-2.8 8.3.3 10.6.4-2.1 3.6-2.4 5-.9 1.5 1.5 1.7 3.8 1.9 5.9l1.2 19.2c.9 12.9 5.9 25.4 14.1 35.4-9.9-4.1-17.7-13.1-20.2-23.5-.6-2.8-2.2-6.5-4.9-5.7-2.7.7-4.9-2.3-6.2-4.8-6-11.4-13.5-22.3-24-29.7-10.5-7.5-24.3-11.1-36.6-7.1.7-2.6 1.3-5.3.4-7.8-.8-2.4-3.8-4.4-6.1-3.1 17.4-37.7 44.2-71 77.3-96.2-.9-2.9-.6-6.2.9-8.9 3.1 3.7 4.3 8.8 3.3 13.5 6.9-2.5 9.4-12.7 4.4-18-11.8-6.7-23.1-14.4-33.6-23-2.8-2.2-5.3-7.1-2.1-8.6-3.3-6.1-11.2-8-18.1-8.1-7-.2-14.3.7-20.6-2.3-5.4-2.5-9.6-7.8-15.6-8.4-7.4-.9-13.3 5.9-17.1 12.3s-7.6 13.8-14.7 16.2c-.9-10.2 3.7-20.6 11.8-26.8s19.4-7.9 29-4.4c12.7 4.7 26.2 7.1 39.7 7.2-3.4-4.1-7.5-7.7-12-10.4l-2.6 6c-9.7-25.4-25-48.6-44.4-67.6-3.4 2.6-8.5 2.6-11.9 0s-4.8-7.5-3.2-11.4l33.8 10.8-32.6-25.6c8.4-.7 17.1 2.2 23.5 7.8-1-4.5 0-9.3 2.7-13l5.9 21 2.1-22.2c2.6 8.9 3.4 18.4 2.3 27.7 4.6-6.5 7.4-14.2 8-22.1-1.7-.7-2.8 2-2.5 3.8-.6 1.6-3.3.7-3.6-.9-.4-1.6.6-3.2 1.2-4.8 2.7-6.1 1.1-13.1.7-19.7-.9-12.5 2.7-25.3 10-35.5 3.3 9 2.2 19.5-2.8 27.7-4.5 7.3-2.9 17.9 3.7 23.5-3.2-9.1.3-19 3-28.3s4.2-20.3-2-27.7c-7.7-9-12.9-20.1-15-31.7 10.5 4 17.1 16 15 27l11.3-14.5c-.6 6.7-.2 13.6-.4 20.3-.2 9.7-1.6 19.3-4.1 28.6l21.1-39.7c4.6-.6 7.9 4.9 7.6 9.6-.4 4.6-3 8.8-4.3 13.3-2.2 8.1.1 16.6 2.5 24.6 10.6 35.8 24 70.7 40 104.3 3.8 8.2 7.9 16.4 9.2 25.3 1.2 8.4-.1 17-2.2 25.2-5.6 22.5-16.8 43.6-32.2 60.9 1.7-1.2-1.7-2.9-3.5-2-7 3.3-11.4 10.6-13.2 18.1-1.7 7.6-1.2 15.4-.6 23.1-2.2-4.1-3.1-8.9-2.5-13.5l-4.6 7.5c-5.3-8.7-1.1-20.2 5.4-28s15.2-13.8 20.7-22.4M203 799.6c1.8 1.6 3.4 3.5 4.5 5.6 1.5-6.1-2.4-12.1-4.6-18.1-2.5-6.9-2.6-14.5-2.6-22l-.4-33.9c-9.4-.5-14.7 11-15 20.4-.3 9.5 1.4 20-4.4 27.5-7.9 10.1-10.4 24.2-6.3 36.4-.7-1.7 2.1-2.4 3.8-1.8 8.2 3 14.2 11.4 14.3 20.1.1 2.2-.2 4.4.4 6.5.8 2.7 2.9 4.7 4.9 6.7 10.7 10.6 19.6 22.9 26.4 36.3.9-10.6-3.9-21.6-12.3-28.1-4.2-3.3-4.9-9.3-5.4-14.6l-3.3-41m10.2 5.4c-5.1 5.6 1 13.9 4.6 20.7 4.3 8.4 4.4 18.2 5.3 27.7.9 9.4 3.4 19.5 10.8 25.3-6.1-13.2-8.5-28.2-6.9-42.7 6.1 21.8 12.4 44.1 26.1 62.1 4.7-12 9.2-26.7 1.2-36.8-4.2-5.3-11.7-9.8-10.3-16.4 2.1 2.2 5.1 3.5 8.1 3.7-20.3-36.2-35.2-75.5-43.8-116.2-1.3 18.7 3.7 37.2 8.7 55.3l-5.1-3.5c-2.8 8.1 2.4 16.6 7 23.9 4.6 7.2 8.9 16.6 4.4 24a172.93 172.93 0 0 0-10.1-27.1m21.4 234.6c-1.3-.4-2.8.3-3.2 1.5-.8-1.2-1.6-2.5-2.3-3.7-2.2 7.8.9 16.9 7.5 21.6l-2-19.4m-25-260.3c-.9-6.9-2.3-13.7-4.1-20.4-1.3 9.8-1 19.7.7 29.4 3.4-.9 3.8-5.5 3.4-9m-21.1 234.5c-3.5-3.6-8.6-5.7-13.7-5.7 1.4 5.6 8.8 8.7 13.7 5.7m28.9-162.7c.7-4.1 1.1-8.2 1-12.3 0-2.1-.3-4.7-2.3-5.7-.7 6-.2 12.1 1.3 18m-7.3-150.4c1.1-2.3 1.2-5.2.2-7.6-2.3 4.6-3.8 9.7-4.3 14.9 2-2 3.4-4.6 4.1-7.3m-44.3 95.9c2-2.6 2.4-6.4 1-9.4-3.1 2.1-3.9 6.9-1.6 9.9m34.1-83c-.7 2.2-1.1 4.4-1.4 6.7 3.5-2.3 5.4-6.8 4.7-10.9-1.7.7-3 2.4-3.1 4.2m582.3 127.8c11.8 1 14.3 20 25.8 22.5 13.7 3.1 25.7 12.7 31.6 25.5-2.8-.8-5.6-1.5-8.4-2.2 5 4.1 7.6 10.9 6.8 17.3-18.6-25.2-45.8-43.9-75.9-52.3 9.1-1 18.6 1.7 25.8 7.4-5.6-8.6-15-14.6-25.2-16.1-4.5-.7-9.4-.5-13.5-2.7-4-2.2-6.7-8-3.6-11.5 3.5 2.4 8.8 1.6 11.4-1.7-2.8-8.5-2.7-18 .2-26.5-8.9.3-14.5 13-8.6 19.7-16.8 12-27.3 32.7-27 53.4-5.6-4.8-15-4.4-20 1-5.1 5.4-4.9 14.8.3 20.1l1.5-13.2c5.8 13.2 21.3 18.4 35 22.8s29.1 11.5 32.3 25.5c-5.9-7.2-15.5-11.4-24.8-10.8 3.9 9 14.8 11.9 23.4 16.6 18.9 10.5 27.9 32.4 35.6 52.6 1.6 4.2 3.2 8.8 1.9 13.2-.9 3.1-3.2 5.7-5.4 8.1l-17.7 19c-6.5 7.1-15 14.9-24.4 13-10.2-2-18.2 8.6-22.1 18.2-11.4 28.1-12 60.5-1.4 89-11.1-17.9-14.9-40-10.6-60.6L712 1114c1.3-10.7 5.3-20.9 9.2-31l20.8-52.8-41-64.9c3.7.9 7.1 2.8 9.8 5.4l-21.9-65.2 5.6 5c-7.5-39.9-1.9-82.1 15.8-118.7-3.2 15.9-2.4 32.6 2.2 48.2l4.5-85.2c.7-11.9 1.4-24.1 5.8-35.2 15.1-37.6 23-77.7 30.7-117.6 2.2-11.3 2.8-26.2-7.7-31.1 7.5 1.1 11.4-8.7 11.3-16.3-.2-7.5-.9-16.7 5.4-20.8l-.6 47.9c7.3-13.9 10-30.1 7.5-45.6l39-30.9c-2.6 11.4-12 19.8-20.1 28.3s-15.6 19.7-12.8 31.1l21.2-36.5 1.8 13c3.4-6.2 11.3-9.4 18-7.4s11.5 9.1 10.8 16.1L814 535.9c-32.3 21.8-54.4 58.1-59.1 96.7 3-2.2 5.9-4.5 8.9-6.8 4.5 22.6 8.7 45.3 12.4 68.1-17.3-9.4-3.4-40.6-18.2-53.8-1.9 10.1-1.7 20.7.8 30.7-4.4-3.8-7.3-9.1-8-14.8-2.5 18 1.1 36.8 10.2 52.6-8.4-4.5-14.8-12.4-17.4-21.5-6.1 15.9-3.7 34.8 6.2 48.6-2.7.4-5.6-.8-7.2-3 4.6 9.5 9.9 18.7 15.8 27.4l-4.4-36c2.1 9.1 4.3 18.5 10.4 25.6 6.1 7 17.2 10.6 24.8 5.3 23.5-16.3 52-25.3 80.6-25.5l-9 7.2c4.7 1 8.9 3.8 11.6 7.7-25.9-5.2-53.6-.7-76.6 12.5 12.1.4 23.5-4.4 35.2-7.3s25.3-3.4 34.4 4.4c-26.2-.5-52.5 5.2-76.2 16.5-5.3 2.4-12.7 4.6-15.8-.3-4.1-6.3-15.3-1.9-16.8 5.5-1.6 7.4 3 14.6 7.8 20.4 1.3-2 1.7-4.5.9-6.8l89 1v-11.2c5.5 12.8 14.4 24.2 25.6 32.5l-16 .5c.4-6.5-5-12.2-11.1-14.4s-12.8-1.7-19.3-1.2l-69.6 5.6c-10.6 14.2.3 38.3 17.9 39.8m-11.1 115c-9.8-3.2-16.7-12-21.8-20.9-5.2-8.9-9.5-18.6-16.7-25.9-4.2-4.3-10-7.8-15.9-7-6 .8-11.1 7.5-8.5 12.9l-6.6-6.7c0 6.9 6 12.1 11.5 16.2 22 16 46.6 30 61.9 52.5 5.6 8.2 9.9 17.9 9.3 27.8-.5 9.9-6.9 20-16.5 22.5-6.7-28.8-29.3-50.7-50.9-70.8 28.1 11.6 49.5 38 55.1 67.9 6.8-6.2 9.3-16.8 6-25.4-1.1 1-2.2 2.1-3.2 3.1-5.7-6.8-5.5-16.8-9.6-24.7-2.7-5.3-7.3-9.3-11.8-13.2-15.9-13.7-32.5-26.8-49.7-39-1.3 10.8 8.9 19.6 11.5 30.2 1.3 5 .8 10.3 1.9 15.4 1.4 6.8 5.6 12.7 9.8 18.4l25.4 34.9c2.1 3 5 6.3 8.7 5.9-6.5-19.2-18-36.7-33.2-50.1-4.1-3.6-8.8-7.7-8.9-13.1 23.3 16.2 40.2 41.3 46.6 69l4.6-4.5c1.2 3.4 6.4.7 8.5-2.3 6.1-9 11.8-18.5 16.8-28.2 3.5-6.6 6.4-15.4 1.2-20.8-.6 2.7-1.3 5.4-2 8.1-6.4-7.1-9.2-16.6-13.2-25.4-3.9-8.7-9.9-17.6-19.1-20.2l8.8 13.4m-36-144.7c-3.2-4.7-2.5-11.6 1.6-15.5 1.8-1.7 4.2-3 5.2-5.2 1.4-3.3-1.1-7.3-4.3-8.7-3.3-1.5-7.1-1.1-10.6-.8 4.5-18.9 4.5-38.9-.2-57.8-3.6 32.2-6.5 64.5-4.9 96.8.2 5.2.6 10.5-1.2 15.3-2.7 7.1-9.9 13.9-6.9 20.9 7.6-11 14.3-22.5 20.3-34.4 1.6-3.4 3.2-7.6 1-10.6m9.6 227.8c2.2-1.1 3.7-3.5 3.7-6-6.5-.5-12.4 6.8-10.5 13.1 2.3-2.3 4.6-4.6 6.8-7m6.4-268.6c.2 1 .3 2.1 1 2.9.6.6 1.4.9 2.2.8 2-5.9-.1-13.1-5.1-17 .7 4.4 1.3 8.8 1.9 13.3m-8.6-19.2c-2.8 8.2-1.6 17.7 3.1 25l-3.1-25m62.4 244.3c-2.7 2.2-4.9 5.2-6.3 8.5-.4 1-.7 2.5.2 3.2 4.2-2.1 6.8-7 6.1-11.7M704 832.1c-1.1 3.6-.9 7.7.7 11.2 3.1-2.9 2.8-8.7-.7-11.2m51.7-40.7c.8-.2-.6-1.1-1.3-.5-2 1.7-2.9 4.6-2.3 7.2 2.2-1.4 3.7-3.9 3.9-6.5M711.2 859c-1.6 1.9-1.9 4.7-.9 7 2.6-1.2 3.4-5.2 1.4-7.2"/></svg>